<svg width="335" height="211" viewBox="0 0 335 211" fill="none" xmlns="http://www.w3.org/2000/svg">
<rect width="335" height="211" rx="10" fill="#F3F3F3"/>
<g clip-path="url(#clip0_1_131)">
<path d="M130.227 142.423H188.103" stroke="#222324" stroke-width="2" stroke-miterlimit="10"/>
<path d="M146.166 143.82H178.538" stroke="#222324" stroke-width="2" stroke-miterlimit="10"/>
<path d="M187.853 146.172H210.416" stroke="#222324" stroke-width="2" stroke-miterlimit="10"/>
<path d="M104.906 153.372H134.887" stroke="#222324" stroke-width="2" stroke-miterlimit="10"/>
<path d="M87.8074 153.67H101.198" stroke="#222324" stroke-width="2" stroke-miterlimit="10"/>
<path d="M97.6162 147.224H129.983" stroke="#222324" stroke-width="2" stroke-miterlimit="10"/>
<path d="M224.636 136.425L219.762 106.822C219.482 105.232 217.142 105.086 216.644 106.626L211.388 136.428" stroke="#222324" stroke-miterlimit="10"/>
<path d="M243.643 107.336H152.175C151.295 107.336 150.582 106.9 150.582 106.362C150.582 105.824 151.295 105.388 152.175 105.388H243.643C244.523 105.388 245.235 105.824 245.235 106.362C245.235 106.897 244.523 107.336 243.643 107.336Z" fill="#222324"/>
<path d="M208.493 134.272H283" stroke="#222324" stroke-width="2" stroke-miterlimit="10"/>
<path d="M65 136.126C65.4884 136.126 123.852 136.126 123.852 136.126H65Z" fill="white"/>
<path d="M65 136.126C65.4884 136.126 123.852 136.126 123.852 136.126" stroke="#222324" stroke-width="2" stroke-miterlimit="10"/>
<path d="M78.543 100.367C87.3698 111.144 92.1521 123.15 92.4166 135.199" stroke="#222324" stroke-miterlimit="10"/>
<path d="M71.2119 114.23C78.6549 120.406 85.1619 128.274 86.0064 136.039" stroke="#222324" stroke-miterlimit="10"/>
<path d="M81.2495 101.521C80.4762 100.192 79.3773 98.9447 77.9376 97.8403C77.3627 97.3954 76.391 97.2025 75.5617 97.5323C74.8393 97.8185 74.4781 98.5372 75.058 98.9852C76.3197 99.9559 77.3067 101.014 77.9884 102.183C78.7312 103.453 81.9923 102.796 81.2495 101.521Z" fill="white" stroke="#222324" stroke-miterlimit="10"/>
<path d="M86.9373 102.989C86.0623 102.712 85.1109 102.955 84.6225 103.44C84.0425 104.016 83.4575 104.592 82.8775 105.167C82.3891 105.649 82.8317 106.337 83.6152 106.583C84.4902 106.86 85.4416 106.617 85.93 106.132C86.51 105.556 87.0951 104.98 87.675 104.405C88.1583 103.923 87.7157 103.235 86.9373 102.989Z" fill="white" stroke="#222324" stroke-miterlimit="10"/>
<path d="M91.3992 107.84C90.748 107.476 89.5575 107.466 88.9724 107.911C87.9905 108.664 87.0036 109.417 86.0217 110.17C85.4417 110.612 85.4214 111.256 86.1387 111.654C86.7899 112.018 87.9855 112.027 88.5654 111.582C89.5473 110.829 90.5343 110.076 91.5162 109.324C92.0911 108.879 92.1114 108.238 91.3992 107.84Z" fill="white" stroke="#222324" stroke-miterlimit="10"/>
<path d="M94.589 112.743C94.5738 112.737 94.5636 112.727 94.5483 112.721C93.9887 112.401 93.0933 112.373 92.4574 112.618C91.7095 112.908 91.155 113.477 90.6106 113.897C89.9899 114.376 89.3794 114.861 88.774 115.35C88.2144 115.801 88.1584 116.426 88.891 116.834C89.527 117.189 90.753 117.217 91.3178 116.762C91.8469 116.336 92.376 115.91 92.9203 115.49C93.1544 115.309 93.3884 115.132 93.6224 114.952C93.7343 114.868 93.9175 114.687 94.0854 114.547C94.4364 114.469 94.7467 114.308 94.9452 114.031C94.9502 114.021 94.9553 114.015 94.9655 114.006C95.2708 113.567 95.1741 113.076 94.589 112.743Z" fill="white" stroke="#222324" stroke-miterlimit="10"/>
<path d="M97.372 118.722C96.8887 118.268 95.744 118.075 94.9961 118.414C93.4699 119.108 92.0301 119.87 90.7023 120.701C89.1557 121.669 91.6994 123.078 93.2409 122.114C94.3704 121.407 95.571 120.763 96.8683 120.172C97.6111 119.836 97.896 119.217 97.372 118.722Z" fill="white" stroke="#222324" stroke-miterlimit="10"/>
<path d="M83.3457 107.146C82.2366 106.819 81.1174 106.514 79.9727 106.237C79.1129 106.029 78.1157 106.147 77.6578 106.688C77.2661 107.155 77.5256 107.892 78.3955 108.104C79.5402 108.381 80.6595 108.686 81.7686 109.012C83.7578 109.601 85.34 107.737 83.3457 107.146Z" fill="white" stroke="#222324" stroke-miterlimit="10"/>
<path d="M86.1439 113.222C85.1314 113.01 84.1699 112.702 83.2643 112.354C82.4809 112.052 81.3514 112.329 80.9495 112.805C80.4916 113.343 80.8986 113.919 81.6872 114.221C82.8726 114.675 84.1139 115.005 85.4367 115.278C86.3168 115.462 87.2936 114.977 87.4717 114.469C87.6803 113.857 87.024 113.402 86.1439 113.222Z" fill="white" stroke="#222324" stroke-miterlimit="10"/>
<path d="M89.0181 118.803C87.5071 118.43 85.9656 118.113 84.3885 117.864C82.2467 117.528 81.5395 119.581 83.6762 119.917C84.9583 120.119 86.2098 120.365 87.4359 120.667C88.2957 120.879 89.2979 120.754 89.7507 120.216C90.1476 119.749 89.883 119.015 89.0181 118.803Z" fill="white" stroke="#222324" stroke-miterlimit="10"/>
<path d="M72.7839 113.937C71.5426 112.97 70.1079 112.18 68.3985 111.533C67.6099 111.234 66.4856 111.508 66.0837 111.984C65.6309 112.522 66.0277 113.101 66.8214 113.399C67.9966 113.844 69.0548 114.417 69.9044 115.082C70.4742 115.527 71.4561 115.717 72.2803 115.39C73.0078 115.101 73.3588 114.385 72.7839 113.937Z" fill="#222324"/>
<path d="M78.8787 115.306C79.0313 114.746 78.487 114.183 77.5559 114.062C76.6758 113.947 75.6786 114.311 75.5209 114.871C75.3174 115.599 75.119 116.327 74.9155 117.055C74.7578 117.615 75.3073 118.178 76.2383 118.299C77.1184 118.414 78.1156 118.05 78.2733 117.49C78.4768 116.762 78.6752 116.034 78.8787 115.306Z" fill="#222324"/>
<path d="M82.15 118.691C81.1478 118.561 80.4202 118.962 80.115 119.5C79.708 120.213 79.3468 120.935 79.0314 121.666C78.7973 122.213 79.4791 122.798 80.3541 122.91C81.3004 123.031 82.15 122.652 82.3891 122.101C82.7045 121.37 83.0658 120.648 83.4728 119.936C83.778 119.401 82.9742 118.8 82.15 118.691Z" fill="#222324"/>
<path d="M76.4623 119.618C75.4193 119.494 74.3764 119.37 73.3284 119.245C72.4177 119.136 71.4867 119.494 71.2934 120.054C71.1051 120.605 71.7054 121.19 72.6161 121.299C73.659 121.423 74.702 121.547 75.75 121.672C76.6607 121.781 77.5917 121.423 77.785 120.863C77.9733 120.315 77.3729 119.727 76.4623 119.618Z" fill="#222324"/>
<path d="M80.7357 125.066C79.3265 124.879 77.9071 124.78 76.4724 124.736C75.5465 124.708 74.8088 125.327 74.8597 125.847C74.9207 126.463 75.75 126.802 76.6759 126.833C77.8053 126.867 78.9195 126.973 80.0235 127.119C82.1857 127.406 82.8979 125.352 80.7357 125.066Z" fill="#222324"/>
<path d="M255.202 134.008C254.8 121.13 253.492 110.341 252.638 98.506L255.202 134.008Z" fill="white"/>
<path d="M255.202 134.008C254.8 121.13 253.492 110.341 252.638 98.506" stroke="#222324" stroke-miterlimit="10"/>
<path d="M254.418 96.6145C254.21 95.4882 251.391 95.426 251.463 96.6145C251.539 97.8309 251.518 99.1127 251.895 100.311C252.231 101.381 254.825 101.073 254.891 100.062C254.968 98.9292 254.632 97.7438 254.418 96.6145Z" fill="white" stroke="#222324" stroke-miterlimit="10"/>
<path d="M258.509 104.585C257.155 105.36 255.802 106.138 254.444 106.912C252.826 107.84 255.258 109.32 256.871 108.396C258.224 107.622 259.577 106.844 260.935 106.069C262.553 105.145 260.121 103.661 258.509 104.585Z" fill="white" stroke="#222324" stroke-miterlimit="10"/>
<path d="M260.498 110.755C259.801 110.328 258.778 110.384 258.071 110.755C257.125 111.249 256.148 111.719 255.141 112.167C254.393 112.5 254.027 113.079 254.525 113.605C254.958 114.059 256.118 114.314 256.876 113.981C258.122 113.43 259.333 112.852 260.498 112.242C261.2 111.872 261.114 111.134 260.498 110.755Z" fill="#222324"/>
<path d="M260.091 115.779C259.389 115.35 258.371 115.412 257.664 115.779C256.743 116.258 255.822 116.737 254.907 117.213C254.2 117.581 254.286 118.321 254.907 118.698C255.609 119.127 256.626 119.065 257.333 118.698C258.254 118.218 259.175 117.739 260.091 117.263C260.798 116.896 260.712 116.156 260.091 115.779Z" fill="#222324"/>
<path d="M260.523 121.382C260.503 121.376 260.482 121.373 260.462 121.367C259.816 121.214 258.895 121.454 258.554 121.818C258.468 121.858 258.376 121.896 258.29 121.936C258.015 122.061 257.735 122.182 257.46 122.306L255.797 123.047C255.049 123.38 254.678 123.959 255.181 124.484C255.614 124.935 256.779 125.197 257.532 124.861C258.259 124.537 258.987 124.214 259.714 123.89C260.447 123.563 261.495 123.255 261.724 122.674C261.958 122.079 261.413 121.591 260.523 121.382Z" fill="white" stroke="#222324" stroke-miterlimit="10"/>
<path d="M252.226 103.919C251.274 103.285 250.277 102.681 249.234 102.106C248.547 101.726 247.484 101.689 246.807 102.106C246.176 102.491 246.115 103.21 246.807 103.59C247.85 104.165 248.853 104.772 249.799 105.403C250.425 105.82 251.59 105.792 252.226 105.403C252.907 104.987 252.856 104.339 252.226 103.919Z" fill="#222324"/>
<path d="M252.836 110.048L249.336 108.35C248.608 107.998 247.616 107.917 246.909 108.35C246.314 108.714 246.177 109.479 246.909 109.834L250.409 111.533C251.137 111.884 252.129 111.965 252.836 111.533C253.436 111.165 253.569 110.4 252.836 110.048Z" fill="#222324"/>
<path d="M253.096 114.728L250.084 113.493C249.316 113.175 248.181 113.402 247.733 113.869C247.24 114.385 247.576 114.989 248.349 115.306L251.361 116.541C252.129 116.859 253.263 116.632 253.711 116.165C254.205 115.645 253.869 115.042 253.096 114.728Z" fill="white" stroke="#222324" stroke-miterlimit="10"/>
<path d="M253.691 121.102C252.51 120.48 251.284 119.892 250.023 119.329C249.275 118.996 248.11 119.251 247.672 119.706C247.163 120.238 247.535 120.807 248.288 121.143C249.31 121.6 250.297 122.083 251.259 122.587C251.961 122.957 252.999 123.01 253.686 122.587C254.311 122.21 254.398 121.476 253.691 121.102Z" fill="white" stroke="#222324" stroke-miterlimit="10"/>
<path d="M254.169 128.423C253.131 127.82 252.093 127.219 251.061 126.615C250.389 126.223 249.3 126.208 248.634 126.615C247.988 127.011 247.957 127.708 248.634 128.1C249.672 128.703 250.709 129.304 251.742 129.907C252.414 130.299 253.503 130.315 254.169 129.907C254.81 129.515 254.841 128.815 254.169 128.423Z" fill="#222324"/>
<path d="M133.98 54.1454C139.438 50.8079 139.438 45.3967 133.98 42.0591C128.522 38.7216 119.674 38.7216 114.216 42.0591C108.758 45.3967 108.758 50.8079 114.216 54.1454C119.674 57.483 128.522 57.483 133.98 54.1454Z" fill="#FBA885"/>
<path d="M177.373 54.1314C178.528 54.2901 179.657 54.4985 180.756 55.0181C182.084 55.6435 183.091 56.4928 184.394 57.1368C187.568 58.7017 192.478 58.7733 195.775 57.3017C197.097 56.7106 198.176 55.9048 199.636 55.4537C201.045 55.0181 202.673 54.9559 204.25 54.903C209.277 54.7319 214.308 54.5577 219.335 54.3865C222.27 54.287 225.42 54.1376 227.714 53.0145C228.431 52.663 229.052 52.2056 229.276 51.6612C229.652 50.7403 228.813 49.7758 227.678 49.1256C225.822 48.0615 223.237 47.598 220.709 47.4517C218.175 47.3055 215.626 47.4455 213.087 47.4082C207.888 47.3366 208.809 45.0219 205.848 43.0557C203.075 41.2138 200.44 41.6027 196.863 41.9232C194.686 42.1161 192.376 41.5965 190.926 40.5885C190.107 40.0223 189.553 39.3129 188.601 38.8276C186.449 37.7262 182.344 37.6453 180.797 39.0485C179.556 40.1716 178.935 42.3432 176.167 42.3774C175.119 42.3899 174.153 41.7676 172.901 41.8143C171.446 41.8703 169.996 42.3463 169.213 43.1086C168.404 43.8926 168.19 44.9379 166.984 45.4979C166.282 45.8246 165.311 45.9179 164.481 45.7437C163.896 45.6193 163.398 45.3766 162.858 45.1868C160.086 44.2255 156.158 45.0095 154.657 46.73C153.157 48.4504 154.123 50.7807 156.652 51.9692C159.007 53.0767 162.202 53.1981 165.173 53.1483C168.144 53.0985 171.222 52.9336 173.99 53.5963C175.145 53.8763 176.274 53.9821 177.373 54.1314Z" fill="#CFECFF"/>
<path d="M213.906 73.7504C214.074 73.8033 214.242 73.8593 214.4 73.9216C216.114 74.5967 216.974 75.8287 218.307 76.7745C220.378 78.2368 223.69 78.9679 226.834 78.7563C229.978 78.5448 232.888 77.431 234.73 75.8567C235.696 75.0291 236.414 74.0647 237.721 73.4362C239.09 72.7829 240.921 72.5993 242.656 72.6366C244.391 72.6771 246.1 72.9135 247.83 73.0038C249.651 73.1002 251.498 73.0318 253.289 72.8047C254.759 72.618 256.24 72.3038 257.328 71.6691C259.486 70.4153 259.221 68.4552 256.647 67.5748C254.719 66.9152 252.404 66.8716 250.196 66.8436C248.161 66.8188 245.113 67.1765 243.445 66.3614C242.076 65.6956 241.862 64.5103 240.784 63.7076C239.527 62.7742 237.696 62.1271 235.742 61.9467C232.11 61.6107 230.797 62.6871 228.66 64.2147C227.521 65.0298 226.33 65.8667 224.748 66.3303C223.166 66.7939 221.07 66.7783 219.854 66.0067C219.167 65.5681 218.857 64.9645 218.409 64.4232C217.213 62.9734 214.812 61.8938 212.167 61.7289C209.526 61.564 206.743 62.3698 205.415 63.776C204.464 64.7841 204.144 66.1094 202.536 66.7348C201.193 67.2574 199.427 67.0894 197.932 67.4254C194.859 68.1161 194.116 70.9691 196.543 72.2758C197.769 72.9384 199.453 73.1718 201.076 73.3056C203.065 73.4673 205.08 73.514 207.079 73.4362C209.384 73.3522 211.882 73.1313 213.906 73.7504Z" fill="#CFECFF"/>
<path d="M122.285 55.9857C121.049 57.1586 123.242 57.5942 123.44 58.5742C123.852 60.6089 119.06 60.6462 117.188 60.0893C115.56 59.604 114.863 58.3035 113.235 57.8804C110.905 57.2737 109.526 59.212 107.577 59.6133C106.036 59.9307 104.23 59.3676 103.879 58.3471C103.568 57.4573 103.716 56.7137 101.91 56.6453C100.053 56.5737 98.1909 56.7231 96.3442 56.5333C94.477 56.3404 92.4471 55.1799 94.6042 54.343C97.3057 53.2977 100.862 53.9977 103.777 53.4283C106.565 52.8808 107.231 50.9892 109.801 50.4603C113.57 49.6856 114.384 52.2492 116.837 53.1857C119.686 54.2746 123.333 53.0425 126.172 54.1439C127.719 54.7444 127.037 55.7368 125.297 55.8799C124.3 55.9608 123.247 55.7959 122.285 55.9857Z" fill="#CFECFF"/>
<path d="M248.807 93.6371C248.486 93.1549 247.988 92.7131 247.296 92.3615C245.347 91.3722 242.437 91.4717 240.158 91.9197C239.471 92.0535 239.217 92.1375 238.886 92.514C238.103 93.4069 237.319 94.3029 236.531 95.1958L237.207 94.5891C238.128 94.4242 239.039 94.2158 239.985 94.1193C241.567 93.9576 243.633 94.2002 244.055 95.314C244.416 96.266 243.266 96.9847 241.883 97.2429C239.079 97.7687 236.027 97.7252 233.295 98.3785C232.181 98.6461 231.082 99.063 230.583 99.7257C230.426 99.931 230.334 100.155 230.278 100.379C230.176 100.796 230.212 101.231 230.461 101.627C230.985 102.457 232.557 102.921 233.966 102.687C234.435 102.61 235.02 102.37 235.187 102.078C235.304 101.869 235.198 101.561 234.959 101.399C234.831 101.312 234.679 101.231 234.597 101.123C234.49 100.976 234.541 100.799 234.679 100.659C235.32 100.018 237.289 99.9963 238.362 99.9186C241.816 99.6697 245.729 99.2185 247.962 97.411C249.275 96.3469 249.611 94.8536 248.807 93.6371Z" fill="white" stroke="#222324" stroke-miterlimit="10"/>
<path d="M197.24 89.549C198.059 98.4874 207.257 105.534 218.485 105.534C229.713 105.534 238.917 98.4874 239.731 89.549H197.24Z" fill="white" stroke="#222324" stroke-miterlimit="10"/>
<path d="M218.485 93.046C230.373 93.046 240.011 91.4441 240.011 89.4681C240.011 87.4921 230.373 85.8903 218.485 85.8903C206.597 85.8903 196.96 87.4921 196.96 89.4681C196.96 91.4441 206.597 93.046 218.485 93.046Z" fill="white" stroke="#222324" stroke-miterlimit="10"/>
<path d="M218.485 96.574C230.373 96.574 240.011 94.9722 240.011 92.9962C240.011 91.0202 230.373 89.4183 218.485 89.4183C206.597 89.4183 196.96 91.0202 196.96 92.9962C196.96 94.9722 206.597 96.574 218.485 96.574Z" fill="#222324"/>
<path d="M213.24 91.5402C208.173 91.7735 204.596 92.3397 204.596 92.9962C204.596 93.8642 210.813 94.5704 218.485 94.5704C226.157 94.5704 232.374 93.8673 232.374 92.9962C232.374 92.1282 226.157 91.4219 218.485 91.4219C218.043 91.4219 217.605 91.425 217.178 91.4282" fill="#222324"/>
<path d="M213.24 91.5402C208.173 91.7735 204.596 92.3397 204.596 92.9962C204.596 93.8642 210.813 94.5704 218.485 94.5704C226.157 94.5704 232.374 93.8673 232.374 92.9962C232.374 92.1282 226.157 91.4219 218.485 91.4219C218.043 91.4219 217.605 91.425 217.178 91.4282" stroke="white" stroke-miterlimit="10"/>
<path d="M245.866 92.7068C246.812 93.1611 247.591 93.7802 247.866 94.4958C248.227 95.4385 247.621 96.4963 246.375 97.0936" fill="white"/>
<path d="M245.866 92.7068C246.812 93.1611 247.591 93.7802 247.866 94.4958C248.227 95.4385 247.621 96.4963 246.375 97.0936" stroke="#222324" stroke-miterlimit="10"/>
<path d="M236.795 93.2513C235.773 95.986 233.636 98.5652 230.634 100.69L236.795 93.2513Z" fill="white"/>
<path d="M236.795 93.2513C235.773 95.986 233.636 98.5652 230.634 100.69" stroke="#222324" stroke-miterlimit="10"/>
<path d="M237.808 89.3624C236.017 88.4663 233.829 87.9063 231.58 87.5672C229.332 87.2281 227.017 87.1036 224.707 87.0041" fill="white"/>
<path d="M237.808 89.3624C236.017 88.4663 233.829 87.9063 231.58 87.5672C229.332 87.2281 227.017 87.1036 224.707 87.0041" stroke="#222324" stroke-miterlimit="10"/>
<path d="M202.546 137.775H122.194C118.912 137.775 116.252 136.148 116.252 134.141V52.1869C116.252 50.1802 118.912 48.5531 122.194 48.5531H202.546C205.828 48.5531 208.488 50.1802 208.488 52.1869V134.141C208.493 136.148 205.828 137.775 202.546 137.775Z" fill="#222324"/>
<path d="M206.667 53.8297H118.068V132.496H206.667V53.8297Z" fill="white" stroke="#222324" stroke-miterlimit="10"/>
<path d="M145.393 72.4843H177.648" stroke="#222324" stroke-miterlimit="10"/>
<path d="M145.678 74.2452H177.933" stroke="#222324" stroke-miterlimit="10"/>
<path d="M159.541 101.347H200.735" stroke="#222324" stroke-miterlimit="10"/>
<path d="M159.903 103.107H201.096" stroke="#222324" stroke-miterlimit="10"/>
<path d="M159.541 107.329H200.735" stroke="#222324" stroke-miterlimit="10"/>
<path d="M159.903 109.09H201.096" stroke="#222324" stroke-miterlimit="10"/>
<path d="M123.74 119.043H153.263" stroke="#222324" stroke-miterlimit="10"/>
<path d="M124 120.801H153.523" stroke="#222324" stroke-miterlimit="10"/>
<path d="M123.74 125.026H153.263" stroke="#222324" stroke-miterlimit="10"/>
<path d="M124 126.787H153.523" stroke="#222324" stroke-miterlimit="10"/>
<path d="M159.541 113.315H200.735" stroke="#222324" stroke-miterlimit="10"/>
<path d="M159.903 115.073H201.096" stroke="#222324" stroke-miterlimit="10"/>
<path d="M145.393 77.7639H177.648" stroke="#222324" stroke-miterlimit="10"/>
<path d="M145.678 79.5248H177.933" stroke="#222324" stroke-miterlimit="10"/>
<path d="M124.097 84.8044H176.905" stroke="#222324" stroke-miterlimit="10"/>
<path d="M124.56 86.5623H177.368" stroke="#222324" stroke-miterlimit="10"/>
<path d="M124.097 90.0841H176.905" stroke="#222324" stroke-miterlimit="10"/>
<path d="M124.56 91.8419H177.368" stroke="#222324" stroke-miterlimit="10"/>
<path d="M124.097 95.3638H176.905" stroke="#222324" stroke-miterlimit="10"/>
<path d="M124.56 97.1216H177.368" stroke="#222324" stroke-miterlimit="10"/>
<path d="M141.995 72.4843H123.888V82.3404H141.995V72.4843Z" fill="#CFECFF"/>
<path d="M153.599 101.524H124.173V114.899H153.599V101.524Z" fill="#CFECFF"/>
<path d="M206.509 58.7578H118.231V68.6139H206.509V58.7578Z" fill="#323232"/>
<path d="M201.132 72.6616H183.025V96.9878H201.132V72.6616Z" fill="#CFECFF"/>
<path d="M201.132 118.582H158.427V127.879H201.132V118.582Z" fill="#CFECFF"/>
<path d="M140.021 66.853V61.0444H142.849L146.807 64.2147V61.0444" stroke="white" stroke-miterlimit="10"/>
<path d="M149.921 61.0444V66.853H146.527L143.129 63.6858V66.853" stroke="white" stroke-miterlimit="10"/>
<path d="M160.106 66.853H152.75V61.0444H160.106" stroke="white" stroke-miterlimit="10"/>
<path d="M160.106 62.2765H155.013V63.3343H160.106" stroke="white" stroke-miterlimit="10"/>
<path d="M160.106 64.389H155.013V65.4437H160.106" stroke="white" stroke-miterlimit="10"/>
<path d="M161.805 61.0444L164.634 66.853H167.462L169.162 63.6858L170.861 66.853H173.69L177.083 61.0444" stroke="white" stroke-miterlimit="10"/>
<path d="M174.254 61.0444L172.555 64.3889L170.291 61.0444H167.462L166.333 64.3889L164.634 61.0444" stroke="white" stroke-miterlimit="10"/>
<path d="M185.884 61.6387C184.389 60.6058 181.265 60.1267 179.494 61.1782C178.569 61.7289 178.273 62.7369 179.011 63.4152C179.805 64.1432 181.392 64.1899 182.344 64.7872C182.593 64.9428 182.786 65.1574 182.725 65.3752C182.644 65.6459 182.181 65.7859 181.769 65.7797C180.71 65.7641 179.545 65.1574 178.823 64.7281" stroke="white" stroke-miterlimit="10"/>
<path d="M178.029 65.8575C179.525 66.8904 182.649 67.3695 184.419 66.3179C185.345 65.7672 185.64 64.7592 184.903 64.081C184.073 63.3219 182.379 63.2845 181.474 62.6187C180.67 62.0276 181.641 61.5267 182.623 61.6916C183.748 61.8783 185.086 62.457 185.884 62.9796" stroke="white" stroke-miterlimit="10"/>
<path d="M118.409 143.581C118.134 145.902 117.742 148.219 117.244 150.525L112.879 150.783C112.523 148.583 112.166 146.387 111.805 144.187" fill="#FBA885"/>
<path d="M112.843 152.896C112.985 153.026 113.209 153.12 113.535 153.166C114.4 153.281 115.494 153.325 116.389 153.378C117.325 153.434 118.271 153.39 119.207 153.347C120.881 153.269 122.56 153.194 124.234 153.116C124.631 153.098 125.104 153.051 125.267 152.827C125.424 152.616 125.195 152.37 124.926 152.202C124.203 151.744 123.196 151.508 122.209 151.312C120.032 150.876 117.788 150.562 115.514 150.376C114.909 150.326 113.382 150.049 112.863 150.344C112.299 150.665 112.548 151.766 112.563 152.199C112.589 152.472 112.645 152.718 112.843 152.896Z" fill="#222324"/>
<path d="M91.2261 144.022C90.4375 146.39 89.5421 148.751 88.5297 151.107L84.1086 151.371C84.2358 149.128 84.363 146.888 84.4902 144.645" fill="#FBA885"/>
<path d="M83.9102 153.496C84.0526 153.627 84.2765 153.72 84.6021 153.767C85.467 153.882 86.5608 153.925 87.4562 153.978C88.3923 154.034 89.3386 153.991 90.2747 153.947C91.9485 153.869 93.6273 153.795 95.3011 153.717C95.698 153.698 96.1711 153.652 96.3339 153.428C96.4916 153.216 96.2627 152.97 95.993 152.802C95.2706 152.345 94.2633 152.108 93.2763 151.912C91.0989 151.477 88.8553 151.163 86.5811 150.976C85.9757 150.926 84.4495 150.649 83.9305 150.945C83.3658 151.265 83.61 152.367 83.6304 152.799C83.6507 153.073 83.7118 153.316 83.9102 153.496Z" fill="#222324"/>
<path d="M115.168 110.388C115.748 112.553 115.616 114.787 114.796 116.915C114.756 117.014 114.72 117.117 114.766 117.214C114.807 117.301 114.908 117.369 115.005 117.438C115.911 118.082 116.597 118.841 117.01 119.653C119.579 117.382 120.515 114.261 120.403 111.545C120.286 108.686 118.902 105.901 116.76 103.372C116.419 102.967 116.053 102.554 115.504 102.249C114.522 101.707 111.953 101.655 111.189 102.432C110.701 102.93 111.037 103.568 111.423 104.1C112.08 105.008 112.853 105.883 113.484 106.797C114.278 107.952 114.837 109.159 115.168 110.388Z" fill="#FBA885"/>
<path d="M126.162 95.8896C126.116 95.9238 126.07 95.9549 126.025 95.986C125.343 96.4403 124.432 96.7389 123.628 97.1123C123.12 97.3487 122.646 97.6163 122.199 97.8963C120.215 99.1501 118.424 100.329 115.799 101.07C112.914 101.882 109.75 102.258 106.555 102.099C106.31 101.459 106.026 100.824 105.781 100.186C105.629 99.7941 105.018 99.063 106.02 99.0039C109.836 98.7861 113.575 98.0892 116.948 96.9816C120.311 95.8771 122.875 94.194 125.77 92.6975C125.877 92.6415 126.004 92.5824 126.147 92.5917C126.406 92.6042 126.498 92.8157 126.447 92.9713C126.304 93.3975 125.653 93.6869 125.317 94.0695C125.251 94.1473 125.195 94.2407 125.272 94.3153C125.322 94.3651 125.414 94.39 125.501 94.4149C125.928 94.5331 126.381 94.6918 126.554 94.9593C126.757 95.2705 126.513 95.6189 126.162 95.8896Z" fill="#FBA885"/>
<path d="M118.938 129.745C118.775 128.731 118.612 127.714 118.332 126.709C118.068 125.757 117.503 124.833 117.254 123.893C116.725 121.865 117.31 119.783 116.501 117.774C115.677 115.714 113.972 113.832 112.288 111.977L98.9082 112.127C95.871 114.852 93.0271 118.757 93.0474 122.111C93.0525 123.212 93.3832 124.422 92.8541 125.502C92.2639 126.703 91.1192 127.717 90.7173 128.986C90.1068 130.921 90.3256 133.074 88.4381 134.673C87.9192 135.115 87.2527 135.492 86.7847 135.955C85.3754 137.355 86.1538 139.393 84.3885 140.653C83.9001 141.002 83.2896 141.288 82.8215 141.646C82.2822 142.062 81.9515 142.563 81.6565 143.061C81.2698 143.724 80.934 144.399 80.6135 145.077C83.5846 145.413 86.5964 145.612 89.6133 145.749C89.9949 145.768 90.3765 145.787 90.7631 145.808C91.9943 145.858 93.2255 145.914 94.4567 145.964C94.6703 145.973 94.8891 145.983 95.1028 145.992C95.1486 145.992 95.1943 145.995 95.2401 145.995C95.9626 145.998 96.6799 145.97 97.3921 145.955C99.9664 140.728 102.815 135.554 105.425 130.333C105.792 131.799 106.127 133.289 106.478 134.764C106.57 135.149 106.662 135.545 106.504 135.921C106.387 136.21 106.132 136.469 105.954 136.745C105.502 137.449 105.563 138.226 105.654 138.979C105.68 139.203 105.71 139.434 105.608 139.651C105.522 139.826 105.359 139.978 105.232 140.143C104.871 140.61 104.428 145.497 104.881 145.503C110.279 145.587 115.687 145.413 121.039 144.984C120.459 139.891 119.757 134.829 118.938 129.745Z" fill="white" stroke="#222324" stroke-miterlimit="10"/>
<path d="M105.797 89.7294C106.3 90.2179 106.773 90.7188 107.216 91.2321C106.86 91.2663 106.504 91.3006 106.148 91.3348C106.051 91.3441 105.924 91.4064 106 91.4437" fill="white"/>
<path d="M105.797 89.7294C106.3 90.2179 106.773 90.7188 107.216 91.2321C106.86 91.2663 106.504 91.3006 106.148 91.3348C106.051 91.3441 105.924 91.4064 106 91.4437" stroke="#222324" stroke-width="0.75" stroke-miterlimit="10"/>
<path d="M105.334 94.754C105.278 94.4117 105.217 94.0695 105.161 93.7273C105.146 93.6402 105.135 93.5531 105.166 93.4659C105.217 93.3415 105.364 93.2388 105.492 93.1362C105.792 92.8904 106 92.6041 106.143 92.2961C106.087 92.2744 106.026 92.2557 105.975 92.2277C105.893 92.1841 105.888 92.1001 105.939 92.0472C106.01 91.9664 106.107 91.9041 106.214 91.8419C106.244 91.8264 106.275 91.817 106.306 91.8108C106.484 91.0019 106.275 90.1152 105.96 89.4183C105.782 89.017 105.634 88.513 105.069 88.2423C104.744 88.0867 104.301 88.0401 103.889 88.0712C102.088 88.2143 100.689 89.0419 100.145 90.0717C99.7833 90.7623 99.7274 91.4966 99.6969 92.2215C99.6205 94.0197 99.6765 95.818 99.7325 97.6162C99.7376 97.7905 99.7833 98.002 100.048 98.0705C100.44 98.17 100.811 98.3287 101.228 98.3878C102.195 98.5309 103.223 98.2976 104.042 97.9554C104.423 97.9554 105.034 97.4078 105.222 97.2398C105.558 96.9349 105.639 96.7513 105.593 96.3873C105.517 95.8429 105.425 95.2984 105.334 94.754Z" fill="#FBA885"/>
<path d="M104.469 87.1036C104.647 86.9916 104.82 86.8765 105.034 86.7925C105.7 86.5374 106.662 86.6743 107.15 87.0538C107.638 87.4334 107.669 87.9872 107.318 88.4196C106.967 88.8521 106.28 89.1601 105.527 89.3063C104.403 89.5272 101.986 89.6641 102.515 90.8028C102.037 90.6908 101.432 90.8961 101.335 91.2041C101.218 91.5744 101.788 91.6086 102.017 91.8699C102.291 92.1904 102.098 92.7473 101.844 93.046C101.549 93.3851 101.03 93.6495 100.429 93.7646C99.2644 93.9886 98.4759 93.2389 98.1859 92.6353C97.6873 91.6024 98.3334 90.7437 98.5115 89.7419C98.1096 89.8041 97.7483 90.501 97.5601 90.7499C97.2549 91.1513 96.9598 91.5557 96.6647 91.9602C96.0898 92.7473 95.4946 93.5313 94.7518 94.2624C94.0294 94.978 93.1492 95.6625 91.9791 96.1011C91.2465 96.3749 90.3358 96.546 89.5269 96.3718C88.7943 96.2131 88.2754 95.79 88.0515 95.3358C87.8328 94.8815 87.8735 94.3931 87.9803 93.9202C88.3415 92.3522 89.4455 90.8526 91.0786 89.6237C92.1673 88.8054 93.5613 88.0805 95.2351 87.8254C96.507 87.6325 97.9722 87.7632 99.0253 88.2579C99.1932 88.3356 99.5137 88.6281 99.7019 88.6499C100.063 88.6934 100.063 88.485 100.251 88.3108C100.623 87.9716 101.203 87.7165 101.854 87.6263C102.556 87.5299 103.34 87.6045 103.95 87.3712C104.148 87.3059 104.311 87.2063 104.469 87.1036Z" fill="#222324"/>
<path d="M111.744 106.464C113.072 105.516 114.4 104.57 115.722 103.621C116.511 103.058 116.76 102.958 116.221 102.28C115.875 101.844 115.509 101.418 115.107 101.001C113.489 99.315 111.342 97.719 108.498 96.7638C107.679 96.4901 106.799 96.2692 105.873 96.1914C103.843 96.0172 101.096 96.3438 99.478 97.1154C97.6313 97.999 96.0847 99.1594 95.3419 100.535C94.4465 102.19 94.8535 104.156 96.7613 105.45C97.265 105.792 97.8958 106.107 98.0891 106.564C98.3232 107.133 98.2774 107.812 98.3486 108.397C98.4961 109.644 98.5928 110.895 98.6233 112.149C98.6233 112.186 98.6488 112.214 98.6742 112.236C98.7149 112.273 98.7759 112.301 98.8624 112.307C101.31 112.422 103.746 112.335 106.194 112.32C106.417 112.32 106.646 112.323 106.875 112.329C106.926 112.329 106.977 112.332 107.028 112.332C108.89 112.388 110.859 112.615 112.645 112.385C112.741 112.373 112.792 112.332 112.812 112.285C112.828 112.236 112.802 112.18 112.741 112.142C111.647 109.865 110.187 107.273 110.106 104.9C110.406 105.183 110.706 105.469 111.006 105.752C111.235 105.995 111.469 106.24 111.744 106.464Z" fill="#222324"/>
<path d="M98.9183 112.192C98.903 112.152 98.8929 112.111 98.8776 112.071C98.8725 112.071 98.8725 112.071 98.8674 112.071C98.8878 112.111 98.903 112.152 98.9183 112.192Z" fill="#222324"/>
<path d="M101.467 116.168C100.669 117.136 100.516 118.274 100.831 119.345C101.142 120.412 101.895 121.417 102.821 122.347C103.935 123.467 103.767 124.861 104.189 126.105C104.698 127.605 105.146 129.114 105.522 130.629" stroke="#222324" stroke-miterlimit="10"/>
<path d="M114.43 116.828C114.257 116.99 114.059 117.154 114.023 117.347C114.003 117.469 114.049 117.593 114.1 117.711C114.481 118.554 115.371 119.279 116.231 119.967C118.119 118.946 119.034 117.4 119.431 115.879C119.508 115.583 119.564 115.266 119.345 114.995C119.126 114.725 118.663 114.557 118.185 114.488C116.938 114.311 115.957 114.479 115.417 115.194C115.036 115.72 114.944 116.342 114.43 116.828Z" fill="#FBA885"/>
<path d="M116.882 120.381C116.979 120.409 116.781 120.446 116.709 120.396C115.188 119.307 114.115 117.985 113.616 116.588" stroke="#222324" stroke-miterlimit="10"/>
<path d="M105.156 93.4691C104.774 93.6931 104.23 93.8082 103.701 93.7708" stroke="#222324" stroke-width="0.75" stroke-miterlimit="10"/>
<path d="M113.235 142.828C112.548 142.408 111.128 142.321 110.462 142.828C109.541 143.522 108.763 144.246 108.193 145.071C107.781 145.668 107.898 146.356 108.895 146.714C109.719 147.009 111.164 146.885 111.581 146.284C111.815 145.945 112.08 145.615 112.385 145.298C112.655 145.018 113.001 144.707 113.24 144.527C113.901 144.019 114.038 143.319 113.235 142.828Z" fill="#222324"/>
<path d="M120.871 134.689C119.701 134.157 117.89 134.241 116.394 134.341C115.799 134.378 115.193 134.462 114.715 134.683C114.237 134.901 113.917 135.283 114.059 135.635C114.262 136.133 115.183 136.347 115.87 136.64C116.776 137.025 117.401 137.645 118.399 137.925C121.171 138.706 122.606 136.833 121.807 135.485C121.599 135.128 121.273 134.873 120.871 134.689Z" fill="#222324"/>
<path d="M123.125 141.646C122.952 141.185 122.367 140.905 121.675 140.756C121.405 140.697 121.12 140.694 120.841 140.728C119.854 140.563 118.867 140.305 117.92 140.118C116.913 139.919 115.779 140.351 115.509 140.955C115.219 141.605 115.865 142.23 116.877 142.43C117.707 142.594 118.541 142.756 119.37 142.921C120.362 143.117 121.217 143.313 122.224 142.999C123.018 142.753 123.313 142.143 123.125 141.646Z" fill="#222324"/>
<path d="M111.485 138.491C111.449 138.36 111.378 138.233 111.261 138.114C110.915 137.763 110.238 137.573 109.572 137.536C107.801 137.436 105.491 138.211 103.955 138.687C103.009 138.979 102.739 139.794 103.253 140.33C104.062 141.176 105.237 140.818 106.402 140.625C107.572 140.432 109.16 140.585 110.208 140.23C110.625 140.087 110.92 139.838 111.134 139.577C111.408 139.247 111.581 138.852 111.485 138.491Z" fill="#222324"/>
<path d="M108.631 128.221C107.227 129.692 106.591 131.911 109.246 132.356C110.935 132.639 112.009 131.572 111.943 130.635C111.912 130.221 111.739 129.814 111.79 129.4C111.841 129.02 112.08 128.663 112.212 128.292C112.345 127.922 112.36 127.502 112.004 127.194C111.139 126.447 109.674 127.129 108.631 128.221Z" fill="#222324"/>
<path d="M121.303 128.775C119.991 128.003 114.298 126.071 114.715 128.793C114.802 129.363 115.478 129.826 116.124 130.237C116.882 130.716 117.651 131.189 118.429 131.656C118.877 131.92 119.411 132.203 120.032 132.166C120.688 132.125 121.131 131.743 121.39 131.372C121.914 130.629 122.402 129.422 121.303 128.775Z" fill="#222324"/>
<path d="M108.636 120.281C107.608 120.007 106.433 119.83 105.838 119.693C105.466 119.609 105.085 119.522 104.683 119.525C103.08 119.534 102.76 120.729 103.36 121.445C104.306 122.577 108.87 123.89 110.192 122.453C111.083 121.491 110.05 120.658 108.636 120.281Z" fill="#222324"/>
<path d="M110.02 115.764C110.533 114.995 110.956 114.049 110.243 113.486C109.47 112.873 107.913 112.985 107.354 113.676C107.094 113.993 106.972 114.364 106.591 114.631C106.229 114.883 105.67 115.014 105.354 115.291C105.181 115.446 105.1 115.633 105.054 115.82C104.942 116.29 105.059 116.794 105.502 117.182C105.944 117.571 106.753 117.817 107.511 117.727C108.427 117.615 109.027 117.08 109.429 116.563C109.602 116.342 109.821 116.066 110.02 115.764Z" fill="#222324"/>
<path d="M121.416 122.549C121.609 122.058 121.283 121.6 120.088 121.47C118.327 121.277 115.275 122.17 114.115 122.91C113.362 123.389 112.828 124.179 113.515 124.696C114.095 125.135 115.229 125.107 116.069 124.87C117.442 124.487 119.528 124.055 120.612 123.38C121.009 123.134 121.304 122.835 121.416 122.549Z" fill="#222324"/>
<path d="M100.887 132.023C100.821 131.64 100.521 131.282 99.9766 131.102C99.3813 130.906 98.6589 130.956 97.9924 130.887C96.5934 130.738 95.0926 130.106 93.8003 130.85C92.8948 131.372 92.9914 132.315 94.1565 132.726C94.9552 133.006 95.7489 133.289 96.5476 133.569C98.43 134.232 100.15 133.97 100.801 132.623C100.897 132.433 100.923 132.225 100.887 132.023Z" fill="#222324"/>
<path d="M104.047 124.967C103.314 124.758 102.485 124.845 101.829 125.191C101.773 125.222 101.712 125.253 101.651 125.281C101.625 125.29 101.595 125.306 101.539 125.331C101.366 125.396 101.198 125.467 101.025 125.53C100.847 125.592 100.664 125.645 100.486 125.704C100.45 125.713 100.424 125.719 100.404 125.726C100.318 125.744 100.236 125.766 100.15 125.785C99.1831 125.993 98.4353 126.612 98.7812 127.259C99.0865 127.841 100.16 128.324 101.193 128.096C102.414 127.832 103.467 127.459 104.459 126.955C104.291 126.298 104.154 125.632 104.047 124.967Z" fill="#222324"/>
<path d="M96.0745 120.907C95.5963 120.795 95.0672 120.77 94.5686 120.866C93.373 121.103 91.3634 121.012 91.0073 121.964C90.7835 122.559 91.3024 123.311 92.3759 123.439C94.2124 123.66 97.8958 124.136 97.7228 122.195C97.672 121.613 96.9546 121.112 96.0745 120.907Z" fill="#222324"/>
<path d="M99.6663 116.153C98.6488 114.995 94.0954 113.934 93.6274 115.866C93.429 116.682 95.4894 117.363 96.334 117.901C98.0077 118.968 100.526 117.422 99.7579 116.268C99.7273 116.227 99.6968 116.19 99.6663 116.153Z" fill="#222324"/>
<path d="M91.0889 136.235C90.4682 135.47 89.8781 134.695 89.3134 133.914C88.886 133.32 87.4666 133.183 86.6272 133.485C85.6249 133.843 85.4927 134.53 85.9251 135.128C86.4898 135.909 87.08 136.683 87.7006 137.449C88.1687 138.03 89.5169 138.189 90.3868 137.878C91.3535 137.529 91.557 136.817 91.0889 136.235Z" fill="#222324"/>
<path d="M97.7738 136.157C97.1022 136.036 96.3137 136.189 95.6879 136.416C95.286 136.562 94.8993 136.742 94.6806 136.994C94.4262 137.29 94.4262 137.638 94.2888 137.962C94.065 138.472 93.4901 138.905 93.2408 139.409C92.4624 140.986 96.4205 142.302 97.4584 140.544C98.0434 139.546 98.9083 138.41 98.9592 137.337C98.9795 136.926 98.7252 136.487 98.1604 136.266C98.0383 136.217 97.9061 136.179 97.7738 136.157Z" fill="#222324"/>
<path d="M88.194 141.667C87.7972 141.593 87.3698 141.583 86.9883 141.667C86.0623 141.873 85.6655 142.523 85.0448 142.99C84.3326 143.522 83.1828 143.923 83.0607 144.604C82.9437 145.267 84.3173 146.527 85.3857 146.707C86.4999 146.894 87.4105 146.474 87.7972 145.871C88.3365 145.034 89.9187 143.518 89.6847 142.619C89.5727 142.178 88.9317 141.807 88.194 141.667Z" fill="#222324"/>
<path d="M98.4555 144.99C98.2265 144.909 97.9976 144.822 97.7839 144.726C97.7534 144.707 97.6669 144.663 97.611 144.632C97.499 144.57 97.3922 144.508 97.2854 144.443C97.1989 144.39 97.1175 144.337 97.0412 144.281C97.0462 144.284 96.9038 144.175 96.8478 144.135C96.7919 144.085 96.7054 144.01 96.6952 143.998C96.5985 143.904 96.507 143.811 96.4205 143.714C95.9219 143.167 94.6144 142.937 93.7343 143.285C92.8287 143.643 92.4929 144.34 93.0322 144.928C93.8462 145.818 95.0418 146.555 96.4815 147.065C97.3668 147.379 98.6692 147.208 99.1677 146.636C99.6561 146.057 99.4018 145.326 98.4555 144.99Z" fill="#222324"/>
<path d="M94.3905 126.364C94.3397 126.354 93.9734 126.273 93.9123 126.264C93.7546 126.22 93.5969 126.174 93.4443 126.124C93.2611 126.062 93.078 125.996 92.8999 125.928C92.7981 125.888 92.7015 125.847 92.5997 125.804C92.7574 125.881 92.7473 125.875 92.5692 125.788C91.7756 125.393 90.5596 125.278 89.7965 125.788C89.1402 126.227 88.9469 127.06 89.7965 127.484C90.8751 128.019 92.0147 128.42 93.3425 128.675C94.3193 128.862 95.5251 128.454 95.754 127.838C96.0033 127.188 95.4386 126.566 94.3905 126.364Z" fill="#222324"/>
<path d="M223.054 74.6994H198.069L193.007 76.983V69.4944C193.007 67.4535 195.713 65.7983 199.051 65.7983H223.054C227.073 65.7983 230.334 67.7926 230.334 70.2504C230.334 72.7051 227.073 74.6994 223.054 74.6994Z" fill="white" stroke="#222324" stroke-miterlimit="10"/>
<path d="M206.077 69.0589C206.163 69.0496 206.24 69.0402 206.301 69.0371C206.362 69.034 206.423 69.0309 206.489 69.0309C206.555 69.0309 206.626 69.034 206.703 69.0371C206.779 69.0402 206.86 69.0464 206.957 69.0589L206.077 71.2896C206.026 71.2958 205.96 71.302 205.878 71.3083C205.797 71.3145 205.71 71.3176 205.614 71.3176C205.517 71.3176 205.426 71.3145 205.334 71.3052C205.242 71.2989 205.181 71.2927 205.151 71.2865L204.668 69.9922L204.154 71.2865C204.123 71.2896 204.067 71.2958 203.981 71.3052C203.899 71.3114 203.808 71.3176 203.711 71.3176C203.614 71.3176 203.533 71.3145 203.457 71.3083C203.38 71.302 203.319 71.2958 203.268 71.2896L202.404 69.062C202.5 69.0527 202.592 69.0433 202.678 69.0402C202.765 69.0371 202.846 69.034 202.912 69.034C202.978 69.034 203.045 69.0371 203.116 69.0402C203.187 69.0433 203.263 69.0496 203.355 69.062L203.777 70.49C203.864 70.2598 203.95 70.0233 204.032 69.7745C204.118 69.5256 204.199 69.2891 204.281 69.0651C204.342 69.0589 204.408 69.0527 204.484 69.0464C204.561 69.0402 204.637 69.0371 204.713 69.0371C204.779 69.0371 204.851 69.0402 204.922 69.0464C204.993 69.0527 205.054 69.0589 205.105 69.0651L205.634 70.5087L206.077 69.0589Z" fill="#222324"/>
<path d="M207.186 70.1851C207.186 70.0171 207.216 69.8647 207.282 69.7216C207.344 69.5784 207.445 69.4571 207.572 69.3513C207.705 69.2487 207.873 69.1647 208.071 69.1055C208.275 69.0464 208.514 69.0153 208.793 69.0153C209.073 69.0153 209.312 69.0464 209.516 69.1055C209.714 69.1647 209.882 69.2455 210.014 69.3513C210.147 69.454 210.243 69.5784 210.304 69.7216C210.365 69.8647 210.401 70.0202 210.401 70.1851C210.401 70.3531 210.371 70.5056 210.304 70.6456C210.243 70.7856 210.147 70.9069 210.014 71.0096C209.882 71.1122 209.719 71.1931 209.516 71.2491C209.312 71.3051 209.073 71.3363 208.793 71.3363C208.514 71.3363 208.275 71.3083 208.071 71.2491C207.868 71.1931 207.7 71.1122 207.572 71.0096C207.44 70.9069 207.344 70.7856 207.282 70.6456C207.216 70.5056 207.186 70.35 207.186 70.1851ZM209.45 70.1851C209.45 69.7309 209.236 69.5038 208.804 69.5038C208.361 69.5038 208.142 69.7309 208.142 70.1851C208.142 70.4122 208.198 70.5802 208.305 70.6922C208.412 70.8042 208.58 70.8602 208.804 70.8602C209.231 70.8571 209.45 70.6331 209.45 70.1851Z" fill="#222324"/>
<path d="M210.818 70.1851C210.818 70.0171 210.849 69.8647 210.915 69.7216C210.976 69.5784 211.078 69.4571 211.205 69.3513C211.337 69.2487 211.505 69.1647 211.704 69.1055C211.907 69.0464 212.146 69.0153 212.426 69.0153C212.706 69.0153 212.945 69.0464 213.148 69.1055C213.347 69.1647 213.515 69.2455 213.647 69.3513C213.779 69.454 213.876 69.5784 213.937 69.7216C213.998 69.8647 214.034 70.0202 214.034 70.1851C214.034 70.3531 214.003 70.5056 213.937 70.6456C213.876 70.7856 213.779 70.9069 213.647 71.0096C213.515 71.1122 213.352 71.1931 213.148 71.2491C212.945 71.3051 212.706 71.3363 212.426 71.3363C212.146 71.3363 211.907 71.3083 211.704 71.2491C211.5 71.1931 211.332 71.1122 211.205 71.0096C211.073 70.9069 210.976 70.7856 210.915 70.6456C210.849 70.5056 210.818 70.35 210.818 70.1851ZM213.077 70.1851C213.077 69.7309 212.864 69.5038 212.431 69.5038C211.988 69.5038 211.77 69.7309 211.77 70.1851C211.77 70.4122 211.826 70.5802 211.933 70.6922C212.039 70.8042 212.207 70.8602 212.431 70.8602C212.864 70.8571 213.077 70.6331 213.077 70.1851Z" fill="#222324"/>
<path d="M217.915 69.0589C218.002 69.0496 218.078 69.0402 218.139 69.0371C218.2 69.034 218.261 69.0309 218.327 69.0309C218.394 69.0309 218.465 69.034 218.541 69.0371C218.617 69.0402 218.699 69.0464 218.796 69.0589L217.915 71.2896C217.864 71.2958 217.798 71.302 217.717 71.3083C217.636 71.3145 217.549 71.3176 217.452 71.3176C217.356 71.3176 217.264 71.3145 217.173 71.3052C217.081 71.2989 217.02 71.2927 216.989 71.2865L216.506 69.9922L215.992 71.2865C215.962 71.2896 215.906 71.2958 215.819 71.3052C215.738 71.3114 215.646 71.3176 215.55 71.3176C215.453 71.3176 215.372 71.3145 215.295 71.3083C215.219 71.302 215.158 71.2958 215.107 71.2896L214.242 69.062C214.339 69.0527 214.43 69.0433 214.517 69.0402C214.603 69.0371 214.685 69.034 214.751 69.034C214.817 69.034 214.883 69.0371 214.954 69.0402C215.026 69.0433 215.102 69.0496 215.194 69.062L215.616 70.49C215.702 70.2598 215.789 70.0233 215.87 69.7745C215.957 69.5256 216.038 69.2891 216.119 69.0651C216.181 69.0589 216.247 69.0527 216.323 69.0464C216.399 69.0402 216.476 69.0371 216.552 69.0371C216.618 69.0371 216.689 69.0402 216.76 69.0464C216.832 69.0527 216.893 69.0589 216.944 69.0651L217.473 70.5087L217.915 69.0589Z" fill="#222324"/>
<path d="M219.584 70.7451C219.65 70.7451 219.721 70.7483 219.793 70.7514C219.864 70.7545 219.935 70.7607 220.016 70.77C220.027 70.8167 220.037 70.8634 220.042 70.9069C220.047 70.9505 220.052 70.9909 220.052 71.0314C220.052 71.0718 220.047 71.1123 220.042 71.1558C220.037 71.1994 220.027 71.246 220.016 71.2927C219.94 71.302 219.864 71.3083 219.793 71.3114C219.721 71.3145 219.655 71.3176 219.584 71.3176C219.518 71.3176 219.447 71.3145 219.375 71.3114C219.304 71.3083 219.233 71.302 219.152 71.2927C219.141 71.246 219.131 71.1994 219.126 71.1558C219.121 71.1123 219.116 71.0718 219.116 71.0314C219.116 70.9909 219.121 70.9505 219.126 70.9069C219.131 70.8634 219.141 70.8198 219.152 70.77C219.228 70.7607 219.304 70.7545 219.375 70.7514C219.447 70.7483 219.518 70.7451 219.584 70.7451ZM219.131 69.0527C219.213 69.0433 219.294 69.0402 219.37 69.0371C219.447 69.034 219.518 69.034 219.589 69.034C219.655 69.034 219.726 69.034 219.803 69.0371C219.879 69.0402 219.955 69.0433 220.042 69.0527L219.996 70.5087C219.91 70.518 219.838 70.5274 219.772 70.5305C219.706 70.5336 219.645 70.5367 219.589 70.5367C219.482 70.5367 219.345 70.5274 219.182 70.5087L219.131 69.0527Z" fill="#222324"/>
<path d="M115.168 80.5919H131.799L136.698 83.7902V76.6439C136.698 74.4629 133.809 72.6927 130.237 72.6927H115.168C111.602 72.6927 108.707 74.4598 108.707 76.6439C108.712 78.8248 111.602 80.5919 115.168 80.5919Z" fill="white" stroke="#222324" stroke-miterlimit="10"/>
<path d="M116.013 76.0217H115.158C115.127 75.9314 115.112 75.8505 115.112 75.7759C115.112 75.7074 115.127 75.6265 115.158 75.5363H117.768C117.783 75.583 117.793 75.6234 117.798 75.6639C117.803 75.7043 117.808 75.7417 117.808 75.7759C117.808 75.8443 117.793 75.9283 117.768 76.0217H116.913V77.7701C116.735 77.7888 116.582 77.7981 116.465 77.7981C116.338 77.7981 116.186 77.7888 116.013 77.7701V76.0217Z" fill="#222324"/>
<path d="M117.941 76.6657C117.941 76.4976 117.971 76.3452 118.037 76.2021C118.098 76.059 118.195 75.9376 118.327 75.8319C118.46 75.7292 118.627 75.6452 118.826 75.5861C119.029 75.527 119.269 75.4958 119.548 75.4958C119.828 75.4958 120.067 75.527 120.271 75.5861C120.469 75.6452 120.637 75.7261 120.769 75.8319C120.902 75.9345 120.998 76.059 121.059 76.2021C121.12 76.3452 121.156 76.5008 121.156 76.6657C121.156 76.8337 121.125 76.9861 121.059 77.1261C120.998 77.2661 120.902 77.3874 120.769 77.4901C120.637 77.5928 120.474 77.6737 120.271 77.7297C120.067 77.7857 119.828 77.8168 119.548 77.8168C119.269 77.8168 119.029 77.7888 118.826 77.7297C118.622 77.6737 118.455 77.5928 118.327 77.4901C118.195 77.3874 118.098 77.2661 118.037 77.1261C117.971 76.9861 117.941 76.8305 117.941 76.6657ZM120.205 76.6657C120.205 76.2114 119.986 75.9843 119.559 75.9843C119.116 75.9843 118.892 76.2114 118.892 76.6657C118.892 76.8928 118.948 77.0608 119.055 77.1728C119.162 77.2848 119.33 77.3408 119.553 77.3408C119.986 77.3408 120.205 77.1137 120.205 76.6657Z" fill="#222324"/>
<path d="M122.687 75.4958C123.328 75.4958 123.822 75.5954 124.153 75.7914C124.488 75.9874 124.651 76.2799 124.651 76.6719C124.651 77.067 124.478 77.3563 124.142 77.543C123.802 77.7266 123.298 77.8199 122.631 77.8199C122.464 77.8199 122.296 77.8168 122.138 77.8043C121.98 77.795 121.823 77.7826 121.67 77.7701V75.5394C121.721 75.5363 121.787 75.5301 121.863 75.5239C121.94 75.5176 122.026 75.5145 122.118 75.5083C122.209 75.5052 122.306 75.499 122.403 75.4958C122.499 75.499 122.596 75.4958 122.687 75.4958ZM122.575 77.3283C122.601 77.3314 122.626 77.3314 122.657 77.3314C122.687 77.3314 122.718 77.3314 122.754 77.3314C122.886 77.3314 123.013 77.3221 123.13 77.3003C123.247 77.2817 123.349 77.2443 123.435 77.1946C123.522 77.1448 123.588 77.0763 123.639 76.9923C123.69 76.9083 123.715 76.7963 123.715 76.6657C123.715 76.535 123.69 76.4261 123.639 76.339C123.588 76.2519 123.522 76.1834 123.435 76.1305C123.354 76.0807 123.252 76.0434 123.14 76.0216C123.028 75.9999 122.911 75.9874 122.789 75.9874C122.723 75.9874 122.672 75.9874 122.642 75.9905C122.611 75.9905 122.591 75.9936 122.581 75.9936V77.3283H122.575Z" fill="#222324"/>
<path d="M125.669 77.7732C125.592 77.7826 125.521 77.7888 125.455 77.7919C125.389 77.795 125.328 77.7981 125.267 77.7981C125.206 77.7981 125.134 77.795 125.053 77.7888C124.972 77.7826 124.885 77.7763 124.783 77.7639L125.928 75.5332C126.015 75.527 126.101 75.5207 126.177 75.5176C126.254 75.5145 126.33 75.5114 126.411 75.5114C126.478 75.5114 126.549 75.5145 126.625 75.5176C126.701 75.5207 126.788 75.527 126.89 75.5332L128.019 77.767C127.826 77.7857 127.653 77.795 127.51 77.795C127.444 77.795 127.373 77.7919 127.307 77.7888C127.241 77.7857 127.164 77.7795 127.088 77.7701L126.895 77.3346C126.798 77.3501 126.707 77.3626 126.62 77.3719C126.534 77.3812 126.447 77.3843 126.361 77.3843C126.284 77.3843 126.203 77.3812 126.121 77.3719C126.04 77.3657 125.954 77.3532 125.867 77.3408L125.669 77.7732ZM126.386 76.1243L126.045 76.927C126.101 76.9363 126.157 76.9457 126.208 76.9519C126.259 76.9581 126.31 76.9612 126.366 76.9612C126.422 76.9612 126.483 76.9581 126.539 76.955C126.595 76.9488 126.656 76.9426 126.717 76.9301L126.386 76.1243Z" fill="#222324"/>
<path d="M129.789 75.5394C129.866 75.5301 129.947 75.5239 130.034 75.5207C130.12 75.5176 130.207 75.5145 130.293 75.5145C130.349 75.5145 130.425 75.5176 130.517 75.5207C130.609 75.527 130.685 75.5332 130.751 75.5394L129.611 76.9737V77.7701C129.433 77.7888 129.281 77.7981 129.164 77.7981C129.037 77.7981 128.884 77.7888 128.711 77.7701V76.9737C128.624 76.8617 128.528 76.7434 128.431 76.6221C128.334 76.5008 128.238 76.3794 128.141 76.2581C128.044 76.1368 127.948 76.0154 127.851 75.8941C127.754 75.7728 127.663 75.6545 127.576 75.5425C127.632 75.5363 127.714 75.5301 127.81 75.5239C127.907 75.5176 128.004 75.5176 128.09 75.5176C128.161 75.5176 128.243 75.5207 128.329 75.5239C128.416 75.5301 128.492 75.5363 128.558 75.5425L129.184 76.4105L129.789 75.5394Z" fill="#222324"/>
<path d="M209.211 121.056C207.669 121.834 206.687 123.535 207.008 124.739C207.12 125.166 207.364 125.583 207.384 126.015C207.415 126.606 207.033 127.182 207.043 127.77C207.053 128.292 207.364 128.793 207.73 129.263C208.122 129.767 208.59 130.256 209.221 130.663C209.963 131.142 210.905 131.488 211.836 131.824C213.184 132.315 216.704 134.129 218.322 133.298C219.04 132.931 218.806 132.231 218.48 131.696C217.997 130.909 217.432 130.137 216.755 129.403C216.099 128.694 215.199 128.093 214.522 127.396C213.062 125.897 213.428 124.005 212.726 122.313C212.563 121.918 212.329 121.526 211.912 121.211C211.154 120.658 210.111 120.602 209.211 121.056Z" fill="#FBA885"/>
<path d="M259.679 145.332C259.526 145.528 259.455 145.749 259.43 145.967C259.384 146.44 259.582 146.919 259.984 147.323C260.564 147.899 261.531 148.3 262.563 148.543C263.596 148.786 264.7 148.891 265.789 148.991C267.926 149.19 270.429 149.498 272.586 149.218C274.143 149.013 275.079 147.411 273.817 146.726C273.466 146.536 273.008 146.446 272.555 146.375C271.314 146.175 270.088 146.188 268.903 145.914C267.503 145.591 266.099 145.267 264.7 144.943C264.034 144.791 263.362 144.635 262.66 144.57C261.632 144.477 260.457 144.623 259.857 145.139C259.791 145.202 259.73 145.264 259.679 145.332Z" fill="#FBA885"/>
<path d="M274.29 150.326C274.138 150.463 273.944 150.572 273.7 150.631C272.795 150.839 271.38 150.341 270.541 150.099C269.691 149.853 268.506 149.576 269.554 148.972C269.874 148.789 270.19 148.605 270.449 148.381C270.821 148.064 271.105 147.694 271.151 147.286C271.192 146.903 270.643 146.396 270.999 146.085C271.278 145.843 271.848 145.836 272.25 145.715C272.718 145.575 273.074 145.348 273.441 145.111C274.285 144.567 274.992 143.942 275.766 143.354C275.969 143.198 276.188 143.039 276.463 142.94C276.742 142.84 277.099 142.803 277.399 142.896C278.187 143.142 278.126 144.125 278.065 144.592C277.958 145.432 277.47 146.291 276.915 147.034C276.559 147.513 276.025 147.915 275.582 148.359C275.099 148.845 274.977 149.408 274.621 149.937C274.529 150.068 274.423 150.204 274.29 150.326Z" fill="#222324"/>
<path d="M207.99 118.131C209.18 118.418 210.284 118.757 211.241 119.292C211.597 119.547 211.907 119.818 212.192 120.104C213.357 121.731 213.774 123.819 213.774 123.819C213.774 123.819 206.774 124.883 205.705 124.674C204.785 122.683 204.266 118.408 207.99 118.131Z" fill="#222324"/>
<path d="M206.575 118.184C206.443 118.113 206.301 118.047 206.158 117.982C206.072 118.001 205.975 117.994 205.899 117.942C205.721 117.817 205.522 117.708 205.319 117.609C205.105 117.515 204.901 117.416 204.703 117.313C204.637 117.282 204.571 117.248 204.51 117.214C204.321 117.126 204.159 117.03 204.026 116.921C204.011 116.912 204.001 116.899 203.991 116.89C203.97 116.871 203.945 116.853 203.93 116.834C203.797 116.722 203.675 116.598 203.594 116.448C203.192 115.751 203.162 114.936 203.268 114.18C203.029 114.161 202.785 114.168 202.526 114.158C201.956 114.14 201.391 114.093 200.826 114.049C200.348 114.015 199.875 113.944 199.392 113.909C198.995 113.881 198.049 113.807 197.748 114.018C197.657 114.081 197.621 114.168 197.596 114.252C197.387 114.861 197.331 115.49 197.097 116.094C196.934 116.514 196.675 116.934 196.243 117.282C195.871 117.578 195.103 117.802 194.925 118.166C194.742 118.533 195.179 118.99 195.398 119.323C195.668 119.73 196.075 120.098 196.548 120.427C197.54 121.121 198.919 121.547 200.44 121.51C201.706 121.479 202.831 121.074 203.808 120.611C204.235 120.409 204.642 120.21 205.018 119.998C205.542 119.706 206.016 119.385 206.423 118.987C206.763 118.648 206.758 118.396 206.575 118.184Z" fill="#FBA885"/>
<path d="M194.955 117.789C195.408 117.693 195.891 117.652 196.36 117.581C197.57 118.138 198.842 118.645 200.155 119.105C200.887 119.363 201.661 119.609 202.505 119.671C203.345 119.734 204.281 119.575 204.774 119.152C205.319 118.688 205.181 118.11 205.09 117.581C205.715 117.428 207.048 117.873 207.669 118.026C208.86 118.315 209.033 118.915 209.287 119.6C209.668 120.63 210.177 121.622 210.33 122.68C210.482 123.753 210.315 124.867 209.557 125.841C209.19 126.311 208.687 126.749 208.417 127.244C208.137 127.764 208.483 128.065 208.626 128.569C208.992 129.839 209.267 131.12 209.511 132.399C209.582 132.785 209.653 133.18 209.501 133.557C209.302 134.054 208.849 134.356 208.046 134.331C207.181 134.306 206.229 134.173 205.38 134.313C204.754 134.415 204.118 134.505 203.487 134.589C201.32 134.869 196.924 135.535 195.378 134.141C194.782 133.606 194.64 132.754 194.38 132.132C194.06 131.351 193.765 130.564 193.505 129.773C192.992 128.224 192.6 126.659 192.325 125.088C192.208 124.422 192.101 123.735 191.567 123.153C191.17 122.72 190.529 122.375 189.792 122.167C189.435 122.067 188.092 122.058 187.919 121.893C187.64 121.625 188.509 120.421 188.754 120.15C189.954 118.856 192.717 118.262 194.955 117.789Z" fill="#222324"/>
<path d="M194.533 133.843C196.461 134.789 199.137 135.694 201.702 135.532C202.923 135.454 204.067 135.131 205.146 134.767C206.708 134.241 208.198 133.631 209.567 132.934C210.554 132.433 212.116 131.88 212.131 131.002C212.141 130.461 211.581 129.935 210.773 129.72C210.02 129.521 209.16 129.584 208.346 129.649C206.606 129.792 204.199 129.904 202.826 130.66C202.032 131.096 200.816 131.998 200.246 130.85C199.89 130.128 199.158 129.568 198.613 128.912C197.932 128.096 197.626 127.263 197.286 126.373C197.016 125.667 196.665 124.973 196.248 124.295C195.688 123.389 194.945 122.478 193.668 121.905C192.391 121.333 190.443 121.224 189.293 121.887C188.591 122.291 188.306 122.885 188.062 123.455C187.762 124.161 187.482 124.879 187.477 125.607C187.472 126.892 188.311 128.115 189.176 129.285C190.438 131.021 192.076 132.639 194.533 133.843Z" fill="#FBA885"/>
<path d="M194.574 120.185C194.518 120.163 194.457 120.144 194.396 120.123C192.961 119.646 189.379 119.398 188.723 120.617C187.558 122.779 186.968 125.054 186.978 127.331C190.631 126.976 194.284 126.644 197.947 126.332C197.921 126.336 197.397 123.604 197.357 123.445C197.245 122.951 197.128 122.453 196.863 121.983C196.456 121.249 195.657 120.586 194.574 120.185Z" fill="#222324"/>
<path d="M217.366 128.8H213.24C212.884 128.8 212.604 128.607 212.65 128.389L213.876 122.359C213.911 122.176 214.166 122.039 214.466 122.039H218.592C218.948 122.039 219.228 122.232 219.182 122.45L217.956 128.479C217.92 128.663 217.666 128.8 217.366 128.8Z" fill="#222324"/>
<path d="M220.612 125.716C220.067 126.472 218.455 127.141 217.101 127.166C216.857 127.172 216.598 127.151 216.394 127.067C216.272 127.017 216.175 126.945 216.094 126.871C215.509 126.342 215.626 125.645 215.768 125.013C215.85 124.643 216.003 124.211 216.562 124.052C216.918 123.952 217.335 123.999 217.727 123.98C218.18 123.959 218.612 123.847 219.065 123.85C220.535 123.859 221.115 125.01 220.612 125.716Z" fill="#FBA885"/>
<path d="M197.514 114.361C197.728 114.958 199.951 115.415 200.75 115.518C201.986 115.674 203.004 115.397 203.721 114.737C204.281 114.224 204.52 113.608 204.693 113.001C204.82 112.559 204.912 112.114 204.978 111.669C205.222 110.002 202.953 109.14 200.409 109.479C199.142 109.65 197.942 110.179 197.469 110.935C197.377 111.081 197.301 111.228 197.24 111.371C197.138 111.806 197.062 112.248 197.067 112.69C197.072 113.06 197.189 113.412 197.27 113.769C197.362 113.965 197.443 114.161 197.514 114.361Z" fill="#FBA885"/>
<path d="M204.489 109.19C204.403 109.187 204.311 109.187 204.23 109.187C203.09 109.19 201.951 109.137 200.826 109.016C200.308 108.96 199.783 108.891 199.254 108.907C198.272 108.935 197.341 109.258 196.736 109.731C196.126 110.204 195.83 110.808 195.815 111.411C195.805 111.94 195.846 112.351 195.347 112.796C194.854 113.237 194.218 113.486 193.465 113.748C192.468 114.096 191.476 114.519 190.992 115.157C190.702 115.54 190.616 115.975 190.28 116.346C189.99 116.663 189.532 116.909 189.1 117.158C187.782 117.914 186.566 118.791 186.017 119.846C185.467 120.9 185.701 122.163 186.973 122.947C187.869 123.501 189.181 123.756 190.458 123.738C191.73 123.719 192.966 123.442 194.07 123.053C195.866 122.422 197.428 121.407 197.779 120.157C197.932 119.612 197.85 119.049 197.693 118.505C197.596 118.162 197.464 117.817 197.53 117.472C197.611 117.049 197.845 116.647 197.932 116.224C198.018 115.77 198.038 115.35 197.977 114.89C197.825 113.751 197.433 112.149 199.168 111.349C200.109 110.913 201.681 110.885 202.78 111.088C203.782 111.271 204.815 111.514 205.639 110.954C205.96 110.736 206.138 110.45 206.189 110.161C206.209 110.049 206.209 109.937 206.163 109.828C205.96 109.355 205.186 109.215 204.489 109.19Z" fill="#222324"/>
<path d="M199.209 112.73C199.122 112.593 198.969 112.481 198.781 112.41C198.537 112.267 198.115 112.257 197.809 112.329C197.382 112.425 197.082 112.705 197.067 112.998C197.036 113.645 198.267 113.981 198.969 113.542C199.3 113.334 199.387 113.004 199.209 112.73Z" fill="#FBA885"/>
<path d="M199.27 143.207C201.94 143.833 204.683 144.352 207.496 144.673C209.261 144.875 211.042 144.999 212.828 145.121C227.755 146.154 264.486 149.445 264.486 149.445C265.667 146.879 266.725 144.306 268.007 141.758C266.125 140.793 263.54 140.361 261.118 140.6C259.918 140.718 258.595 140.98 257.562 140.588C257.008 140.379 256.662 140.018 256.214 139.729C254.657 138.721 252.098 138.674 249.834 138.718C246.37 138.783 243.882 138.08 240.738 137.315C237.227 136.462 233.702 135.632 230.115 134.907C224.448 133.762 218.643 132.723 212.68 132.586" fill="white"/>
<path d="M199.27 143.207C201.94 143.833 204.683 144.352 207.496 144.673C209.261 144.875 211.042 144.999 212.828 145.121C227.755 146.154 264.486 149.445 264.486 149.445C265.667 146.879 266.725 144.306 268.007 141.758C266.125 140.793 263.54 140.361 261.118 140.6C259.918 140.718 258.595 140.98 257.562 140.588C257.008 140.379 256.662 140.018 256.214 139.729C254.657 138.721 252.098 138.674 249.834 138.718C246.37 138.783 243.882 138.08 240.738 137.315C237.227 136.462 233.702 135.632 230.115 134.907C224.448 133.762 218.643 132.723 212.68 132.586" stroke="#222324" stroke-miterlimit="10"/>
<path d="M230.471 149.828C230.222 149.669 230.069 149.458 230.064 149.187C230.029 147.538 229.988 145.892 229.952 144.243C231.738 144.555 233.615 144.726 235.437 144.956C235.116 145.892 234.765 146.829 234.567 147.781C234.434 148.415 234.236 149.05 234.144 149.688C233.687 149.946 233.137 150.276 232.761 150.276C231.916 150.27 230.985 150.161 230.471 149.828Z" fill="#FBA885"/>
<path d="M240.082 150.83C240.357 150.864 240.631 150.898 240.901 150.945C241.659 151.076 242.783 151.405 242.458 152.003C242.32 152.255 242.081 152.348 241.669 152.429C241.354 152.491 240.987 152.528 240.652 152.528C240.102 152.525 232.827 152.345 229.836 151.937C229.245 151.856 229.108 151.614 229.118 151.402C229.154 150.74 229.266 149.996 229.383 149.327C229.423 149.1 229.856 148.985 230.156 149.122C230.884 149.448 231.815 149.725 232.74 149.604C233.346 149.523 233.57 149.237 234.058 149.094C235.127 148.786 237.869 150.463 239.161 150.702C239.466 150.755 239.777 150.792 240.082 150.83Z" fill="#222324"/>
<path d="M225.129 144.604C225.129 144.62 226.89 144.76 226.996 144.769C229.352 144.978 231.708 145.183 234.063 145.395C235.162 145.494 236.261 145.591 237.36 145.693C237.894 145.743 239.715 146.079 240.046 145.864C240.143 145.802 240.183 145.715 240.224 145.631C240.829 144.275 241.16 142.874 241.206 141.468C241.236 140.516 240.712 139.906 239.954 139.113C238.23 137.305 240.656 134.907 239.461 132.944C239.181 132.48 238.703 132.066 238.459 131.596C238.103 130.924 238.24 130.2 238.204 129.496C238.128 127.857 237.039 125.387 234.77 124.357C232.705 123.42 229.881 123.563 227.51 123.884C222.133 124.612 217.106 126.158 212.655 128.14C208.203 130.122 204.301 132.536 200.74 135.106L194.146 133.659C193.633 135.56 193.953 137.505 194.38 139.415C194.843 141.478 195.627 143.727 198.318 145.003C200.287 145.936 202.978 146.157 205.431 145.877C210.259 145.323 215.539 142.99 218.811 140.812C222.291 138.494 225.709 135.999 227.231 132.99C226.874 133.83 225.455 140.918 225.129 144.604Z" fill="white" stroke="#222324" stroke-miterlimit="10"/>
<path d="M195.419 134.68C195.693 134.91 195.968 135.14 196.304 135.336C197.342 135.949 198.934 136.179 200.313 135.918C201.895 135.616 202.943 134.904 203.721 134.064C204.703 133.003 205.741 131.96 206.83 130.94C206.611 130.778 206.209 130.766 205.868 130.803C205.405 130.856 204.937 130.881 204.479 130.949C202.536 131.239 200.679 131.755 198.7 131.904C197.469 131.998 194.833 131.755 193.902 132.368C192.865 133.056 194.793 134.154 195.419 134.68Z" fill="#FBA885"/>
<path d="M226.819 134.104C227.17 132.67 227.755 131.254 228.574 129.892L226.819 134.104Z" fill="white"/>
<path d="M226.819 134.104C227.17 132.67 227.755 131.254 228.574 129.892" stroke="#222324" stroke-miterlimit="10"/>
<path d="M201.172 144.358C199.422 143.584 198.232 142.352 197.967 141.042L201.172 144.358Z" fill="white"/>
<path d="M201.172 144.358C199.422 143.584 198.232 142.352 197.967 141.042" stroke="#222324" stroke-miterlimit="10"/>
<path d="M202.49 111.937C202.576 112.317 202.622 112.696 202.632 113.079C202.632 113.163 202.632 113.253 202.561 113.325C202.49 113.396 202.317 113.437 202.205 113.387" stroke="#222324" stroke-miterlimit="10"/>
<path d="M197.52 126.364C197.23 124.97 197.184 123.557 197.382 122.157" stroke="white" stroke-miterlimit="10"/>
<path d="M210.223 124.282C210.518 123.759 210.442 123.178 210.177 122.649C209.913 122.12 209.47 121.631 209.032 121.146" stroke="white" stroke-miterlimit="10"/>
<path d="M202.846 127.141C202.968 126.948 203.299 126.84 203.609 126.759C204.729 126.472 205.97 126.367 207.176 126.447" stroke="white" stroke-miterlimit="10"/>
<path d="M200.45 115.123C201.035 115.347 201.813 115.372 202.434 115.185" stroke="#222324" stroke-miterlimit="10"/>
<path d="M234.958 125.934C235.569 126.441 235.884 127.079 235.839 127.708" stroke="#222324" stroke-miterlimit="10"/>
<path d="M233.885 126.326C234.226 126.693 234.501 127.082 234.704 127.487" stroke="#222324" stroke-miterlimit="10"/>
<path d="M197.423 117.817C195.312 118.374 193.216 118.987 191.43 119.874C189.644 120.757 188.179 121.943 187.675 123.315" stroke="white" stroke-miterlimit="10"/>
<path d="M265.239 134.306C265.641 124.621 270.001 115.008 277.816 106.58" stroke="#222324" stroke-miterlimit="10"/>
<path d="M273.659 110.559C272.967 109.778 272.255 108.975 271.431 108.241C270.357 107.28 267.946 108.116 268.862 109.159C269.548 109.943 270.378 110.702 271.192 111.439C272.214 112.366 274.544 111.557 273.659 110.559Z" fill="#222324"/>
<path d="M278.543 104.414C277.958 104.741 277.572 105.214 277.144 105.621C276.722 106.02 276.244 106.412 275.918 106.841C275.623 107.23 275.684 107.681 276.279 107.955C276.814 108.197 277.658 108.213 278.131 107.886C278.701 107.497 279.144 107.043 279.617 106.611C280.09 106.175 280.639 105.758 280.914 105.26C281.408 104.392 279.525 103.87 278.543 104.414Z" fill="#222324"/>
<path d="M278.09 113.374C276.33 113.172 274.193 113.489 272.565 113.909C270.927 114.333 271.482 115.863 273.323 115.589C274.107 115.474 274.895 115.347 275.694 115.272C276.493 115.194 277.312 115.213 278.09 115.089C279.413 114.874 279.535 113.539 278.09 113.374Z" fill="#222324"/>
<path d="M268.897 117.288C268.358 117.014 267.844 116.719 267.366 116.405C266.903 116.1 266.527 115.68 266.013 115.418C265.514 115.163 264.848 115.07 264.258 115.278C263.728 115.468 263.383 115.913 263.591 116.277C263.891 116.8 264.563 117.245 265.178 117.646C265.769 118.035 266.435 118.368 267.127 118.688C267.697 118.956 268.623 118.778 269.014 118.458C269.416 118.131 269.467 117.574 268.897 117.288Z" fill="#222324"/>
<path d="M271.98 121.152C271.339 121.255 270.724 121.432 270.108 121.582C269.447 121.74 268.78 121.883 268.175 122.107C266.725 122.639 267.727 123.878 269.274 123.703C269.935 123.629 270.546 123.476 271.177 123.339C271.843 123.193 272.525 123.059 273.161 122.867C274.743 122.384 273.624 120.885 271.98 121.152Z" fill="#222324"/>
<path d="M266.287 125.925C265.952 125.542 265.423 125.212 264.899 124.92C264.308 124.59 263.703 124.27 262.94 124.102C262.334 123.968 261.587 124.192 261.276 124.515C260.925 124.883 261.083 125.299 261.505 125.607C261.953 125.934 262.375 126.043 262.864 126.307C263.362 126.578 263.815 126.861 264.344 127.107C264.837 127.337 265.657 127.219 266.064 126.97C266.521 126.699 266.588 126.267 266.287 125.925Z" fill="#222324"/>
<path d="M97.1277 102.862C97.3922 104.246 97.7433 105.024 98.1706 106.393" stroke="white" stroke-miterlimit="10"/>
</g>
<path d="M64.8665 171.609L65.1477 169.909H75.2791L74.9979 171.609H70.9134L69.0213 183H67.0526L68.9446 171.609H64.8665ZM78.0676 177.17L77.1088 183H75.1976L77.3709 169.909H79.2566L78.4512 174.78H78.5726C78.8837 174.247 79.3013 173.827 79.8255 173.521C80.3539 173.21 81.0016 173.054 81.7686 173.054C82.4419 173.054 83.0066 173.192 83.4625 173.469C83.9228 173.746 84.2466 174.16 84.4341 174.71C84.6259 175.255 84.6557 175.937 84.5236 176.755L83.4753 183H81.5641L82.5613 176.985C82.6806 176.265 82.5868 175.707 82.28 175.31C81.9732 174.91 81.4938 174.71 80.8418 174.71C80.3858 174.71 79.964 174.805 79.5762 174.997C79.1926 175.189 78.8688 175.47 78.6046 175.841C78.3404 176.207 78.1614 176.651 78.0676 177.17ZM90.2253 183.198C89.2623 183.198 88.4654 182.991 87.8347 182.578C87.2083 182.161 86.7694 181.575 86.5179 180.82C86.2665 180.062 86.226 179.173 86.3965 178.155C86.5627 177.149 86.8972 176.263 87.4 175.496C87.9029 174.729 88.5293 174.13 89.2793 173.7C90.0336 173.269 90.8667 173.054 91.7786 173.054C92.3326 173.054 92.8546 173.146 93.3446 173.329C93.839 173.512 94.2587 173.8 94.6039 174.192C94.949 174.584 95.1877 175.093 95.3198 175.719C95.4561 176.342 95.4519 177.098 95.307 177.989L95.1983 178.666H87.3873L87.611 177.234H93.5428C93.6323 176.732 93.6088 176.286 93.4725 175.898C93.3361 175.506 93.1017 175.197 92.7694 174.972C92.4412 174.746 92.0279 174.633 91.5293 174.633C91.0179 174.633 90.5407 174.767 90.0975 175.036C89.6543 175.304 89.2836 175.647 88.9853 176.065C88.6912 176.478 88.5059 176.904 88.4292 177.343L88.2054 178.653C88.0946 179.369 88.1138 179.945 88.263 180.379C88.4164 180.814 88.6848 181.129 89.0684 181.325C89.4519 181.521 89.9313 181.619 90.5066 181.619C90.8773 181.619 91.2203 181.568 91.5357 181.466C91.8553 181.359 92.1387 181.204 92.3858 180.999C92.633 180.79 92.8397 180.531 93.0059 180.219L94.7573 180.545C94.5229 181.078 94.1863 181.545 93.7473 181.945C93.3084 182.342 92.7907 182.651 92.1941 182.872C91.6017 183.089 90.9455 183.198 90.2253 183.198ZM107.692 173.182L107.442 174.716H101.894L102.143 173.182H107.692ZM102.028 183L103.856 172.044C103.95 171.43 104.165 170.921 104.502 170.516C104.839 170.107 105.246 169.803 105.723 169.602C106.2 169.398 106.699 169.295 107.219 169.295C107.602 169.295 107.924 169.327 108.184 169.391C108.448 169.451 108.64 169.506 108.759 169.558L108.062 171.104C107.977 171.079 107.868 171.049 107.736 171.015C107.604 170.977 107.438 170.957 107.238 170.957C106.773 170.957 106.422 171.072 106.183 171.303C105.949 171.533 105.791 171.865 105.71 172.3L103.939 183H102.028ZM108.027 183L109.664 173.182H111.575L109.938 183H108.027ZM111.019 171.648C110.686 171.648 110.405 171.537 110.175 171.315C109.949 171.089 109.845 170.821 109.862 170.51C109.879 170.195 110.011 169.926 110.258 169.705C110.505 169.479 110.793 169.366 111.121 169.366C111.453 169.366 111.732 169.479 111.958 169.705C112.184 169.926 112.291 170.195 112.278 170.51C112.261 170.821 112.129 171.089 111.882 171.315C111.639 171.537 111.351 171.648 111.019 171.648ZM112.51 183L114.146 173.182H115.993L115.731 174.741H115.833C116.098 174.213 116.483 173.798 116.99 173.495C117.498 173.188 118.039 173.035 118.614 173.035C118.738 173.035 118.878 173.039 119.036 173.048C119.194 173.052 119.321 173.062 119.419 173.08L119.113 174.908C119.04 174.886 118.908 174.863 118.716 174.837C118.525 174.808 118.326 174.793 118.122 174.793C117.674 174.793 117.259 174.888 116.875 175.08C116.492 175.268 116.17 175.53 115.91 175.866C115.65 176.199 115.482 176.578 115.405 177.004L114.421 183H112.51ZM128.05 175.579L126.267 175.886C126.229 175.66 126.15 175.447 126.03 175.246C125.915 175.046 125.738 174.884 125.5 174.761C125.261 174.633 124.944 174.569 124.547 174.569C123.998 174.569 123.516 174.695 123.103 174.946C122.694 175.197 122.459 175.517 122.4 175.905C122.344 176.22 122.419 176.476 122.623 176.672C122.828 176.864 123.188 177.023 123.704 177.151L125.212 177.509C126.081 177.718 126.704 178.044 127.079 178.487C127.458 178.926 127.59 179.497 127.475 180.2C127.377 180.784 127.121 181.302 126.708 181.754C126.299 182.205 125.775 182.559 125.135 182.815C124.496 183.07 123.785 183.198 123.001 183.198C121.884 183.198 121.015 182.962 120.393 182.489C119.77 182.016 119.451 181.347 119.434 180.482L121.326 180.2C121.36 180.682 121.532 181.046 121.844 181.293C122.159 181.536 122.596 181.658 123.154 181.658C123.793 181.662 124.328 181.528 124.758 181.255C125.189 180.982 125.434 180.652 125.493 180.264C125.545 179.962 125.476 179.71 125.289 179.51C125.106 179.31 124.782 179.156 124.317 179.05L122.732 178.685C121.846 178.477 121.219 178.14 120.853 177.675C120.486 177.211 120.363 176.627 120.482 175.924C120.576 175.349 120.819 174.848 121.211 174.422C121.607 173.991 122.108 173.657 122.713 173.418C123.318 173.175 123.987 173.054 124.72 173.054C125.79 173.054 126.593 173.284 127.13 173.744C127.667 174.2 127.974 174.812 128.05 175.579ZM135.323 173.182L135.074 174.716H129.711L129.96 173.182H135.323ZM131.782 170.83H133.693L132.146 180.117C132.086 180.488 132.097 180.767 132.178 180.955C132.259 181.138 132.382 181.263 132.549 181.332C132.719 181.396 132.909 181.428 133.118 181.428C133.271 181.428 133.405 181.417 133.52 181.396C133.635 181.374 133.727 181.357 133.795 181.344L133.897 182.923C133.77 182.966 133.597 183.009 133.38 183.051C133.167 183.098 132.907 183.124 132.6 183.128C132.097 183.136 131.643 183.047 131.238 182.859C130.833 182.668 130.531 182.378 130.331 181.99C130.13 181.598 130.081 181.106 130.184 180.513L131.782 170.83ZM143.396 183.217C142.774 183.217 142.23 183.102 141.766 182.872C141.301 182.638 140.958 182.299 140.737 181.856C140.515 181.413 140.458 180.869 140.564 180.226C140.658 179.672 140.841 179.216 141.114 178.858C141.391 178.5 141.728 178.217 142.124 178.008C142.52 177.795 142.951 177.635 143.415 177.528C143.88 177.422 144.348 177.343 144.821 177.292C145.418 177.224 145.902 177.166 146.272 177.119C146.647 177.072 146.929 177 147.116 176.902C147.304 176.8 147.417 176.634 147.455 176.403V176.359C147.544 175.805 147.463 175.374 147.212 175.067C146.965 174.756 146.534 174.601 145.921 174.601C145.282 174.601 144.745 174.741 144.31 175.023C143.88 175.304 143.562 175.619 143.358 175.969L141.645 175.56C141.951 174.963 142.341 174.482 142.814 174.115C143.292 173.744 143.814 173.476 144.38 173.31C144.947 173.139 145.527 173.054 146.119 173.054C146.511 173.054 146.918 173.101 147.34 173.195C147.762 173.284 148.145 173.45 148.49 173.693C148.84 173.936 149.1 174.283 149.27 174.735C149.441 175.183 149.466 175.764 149.347 176.48L148.267 183H146.4L146.63 181.658H146.554C146.392 181.905 146.166 182.148 145.876 182.386C145.591 182.625 145.241 182.823 144.828 182.981C144.414 183.138 143.937 183.217 143.396 183.217ZM144.048 181.683C144.581 181.683 145.051 181.579 145.461 181.37C145.874 181.161 146.208 180.888 146.464 180.552C146.72 180.211 146.88 179.847 146.944 179.459L147.154 178.193C147.074 178.261 146.931 178.323 146.726 178.379C146.526 178.434 146.3 178.483 146.049 178.526C145.797 178.568 145.55 178.604 145.307 178.634C145.069 178.664 144.87 178.692 144.713 178.717C144.338 178.764 143.986 178.843 143.658 178.954C143.334 179.065 143.064 179.224 142.846 179.433C142.629 179.638 142.493 179.911 142.437 180.251C142.36 180.724 142.473 181.082 142.776 181.325C143.083 181.564 143.507 181.683 144.048 181.683ZM150.812 183L152.449 173.182H154.296L154.034 174.741H154.136C154.4 174.213 154.786 173.798 155.293 173.495C155.8 173.188 156.341 173.035 156.917 173.035C157.04 173.035 157.181 173.039 157.339 173.048C157.496 173.052 157.624 173.062 157.722 173.08L157.415 174.908C157.343 174.886 157.211 174.863 157.019 174.837C156.827 174.808 156.629 174.793 156.425 174.793C155.977 174.793 155.562 174.888 155.178 175.08C154.795 175.268 154.473 175.53 154.213 175.866C153.953 176.199 153.785 176.578 153.708 177.004L152.724 183H150.812ZM164.555 173.182L164.306 174.716H158.943L159.192 173.182H164.555ZM161.014 170.83H162.925L161.378 180.117C161.319 180.488 161.329 180.767 161.41 180.955C161.491 181.138 161.615 181.263 161.781 181.332C161.952 181.396 162.141 181.428 162.35 181.428C162.503 181.428 162.638 181.417 162.753 181.396C162.868 181.374 162.959 181.357 163.028 181.344L163.13 182.923C163.002 182.966 162.829 183.009 162.612 183.051C162.399 183.098 162.139 183.124 161.832 183.128C161.329 183.136 160.876 183.047 160.471 182.859C160.066 182.668 159.763 182.378 159.563 181.99C159.363 181.598 159.314 181.106 159.416 180.513L161.014 170.83ZM165.033 183L166.669 173.182H168.581L166.944 183H165.033ZM168.025 171.648C167.692 171.648 167.411 171.537 167.181 171.315C166.955 171.089 166.85 170.821 166.868 170.51C166.885 170.195 167.017 169.926 167.264 169.705C167.511 169.479 167.799 169.366 168.127 169.366C168.459 169.366 168.738 169.479 168.964 169.705C169.19 169.926 169.297 170.195 169.284 170.51C169.267 170.821 169.135 171.089 168.887 171.315C168.645 171.537 168.357 171.648 168.025 171.648ZM173.626 183.198C172.671 183.198 171.889 182.983 171.28 182.553C170.67 182.118 170.246 181.519 170.008 180.756C169.769 179.994 169.731 179.12 169.893 178.136C170.055 177.138 170.385 176.259 170.883 175.496C171.386 174.729 172.015 174.13 172.769 173.7C173.528 173.269 174.369 173.054 175.294 173.054C176.04 173.054 176.681 173.192 177.218 173.469C177.755 173.742 178.162 174.126 178.439 174.62C178.716 175.114 178.835 175.692 178.797 176.352H176.937C176.907 175.892 176.736 175.496 176.425 175.163C176.114 174.831 175.656 174.665 175.051 174.665C174.518 174.665 174.028 174.805 173.581 175.087C173.133 175.364 172.756 175.76 172.449 176.276C172.143 176.787 171.934 177.392 171.823 178.091C171.704 178.807 171.71 179.425 171.842 179.945C171.974 180.464 172.217 180.867 172.571 181.153C172.925 181.438 173.37 181.581 173.907 181.581C174.273 181.581 174.614 181.515 174.93 181.383C175.249 181.246 175.53 181.053 175.773 180.801C176.02 180.55 176.212 180.247 176.349 179.893H178.215C178.032 180.528 177.725 181.095 177.295 181.594C176.868 182.092 176.344 182.484 175.722 182.77C175.1 183.055 174.401 183.198 173.626 183.198ZM183.813 169.909L181.64 183H179.728L181.902 169.909H183.813ZM188.417 183.198C187.454 183.198 186.657 182.991 186.026 182.578C185.4 182.161 184.961 181.575 184.709 180.82C184.458 180.062 184.417 179.173 184.588 178.155C184.754 177.149 185.089 176.263 185.591 175.496C186.094 174.729 186.721 174.13 187.471 173.7C188.225 173.269 189.058 173.054 189.97 173.054C190.524 173.054 191.046 173.146 191.536 173.329C192.03 173.512 192.45 173.8 192.795 174.192C193.14 174.584 193.379 175.093 193.511 175.719C193.648 176.342 193.643 177.098 193.498 177.989L193.39 178.666H185.579L185.802 177.234H191.734C191.824 176.732 191.8 176.286 191.664 175.898C191.528 175.506 191.293 175.197 190.961 174.972C190.633 174.746 190.219 174.633 189.721 174.633C189.209 174.633 188.732 174.767 188.289 175.036C187.846 175.304 187.475 175.647 187.177 176.065C186.883 176.478 186.697 176.904 186.621 177.343L186.397 178.653C186.286 179.369 186.305 179.945 186.454 180.379C186.608 180.814 186.876 181.129 187.26 181.325C187.643 181.521 188.123 181.619 188.698 181.619C189.069 181.619 189.412 181.568 189.727 181.466C190.047 181.359 190.33 181.204 190.577 180.999C190.824 180.79 191.031 180.531 191.197 180.219L192.949 180.545C192.714 181.078 192.378 181.545 191.939 181.945C191.5 182.342 190.982 182.651 190.385 182.872C189.793 183.089 189.137 183.198 188.417 183.198ZM199.574 183L201.21 173.182H203.122L201.485 183H199.574ZM202.566 171.648C202.233 171.648 201.952 171.537 201.722 171.315C201.496 171.089 201.392 170.821 201.409 170.51C201.426 170.195 201.558 169.926 201.805 169.705C202.052 169.479 202.34 169.366 202.668 169.366C203 169.366 203.279 169.479 203.505 169.705C203.731 169.926 203.838 170.195 203.825 170.51C203.808 170.821 203.676 171.089 203.428 171.315C203.186 171.537 202.898 171.648 202.566 171.648ZM212.654 175.579L210.87 175.886C210.832 175.66 210.753 175.447 210.634 175.246C210.519 175.046 210.342 174.884 210.103 174.761C209.865 174.633 209.547 174.569 209.151 174.569C208.601 174.569 208.12 174.695 207.706 174.946C207.297 175.197 207.063 175.517 207.003 175.905C206.948 176.22 207.022 176.476 207.227 176.672C207.431 176.864 207.792 177.023 208.307 177.151L209.816 177.509C210.685 177.718 211.307 178.044 211.682 178.487C212.061 178.926 212.194 179.497 212.078 180.2C211.98 180.784 211.725 181.302 211.311 181.754C210.902 182.205 210.378 182.559 209.739 182.815C209.1 183.07 208.388 183.198 207.604 183.198C206.488 183.198 205.618 182.962 204.996 182.489C204.374 182.016 204.054 181.347 204.037 180.482L205.929 180.2C205.963 180.682 206.136 181.046 206.447 181.293C206.762 181.536 207.199 181.658 207.757 181.658C208.397 181.662 208.931 181.528 209.362 181.255C209.792 180.982 210.037 180.652 210.097 180.264C210.148 179.962 210.08 179.71 209.892 179.51C209.709 179.31 209.385 179.156 208.921 179.05L207.336 178.685C206.449 178.477 205.823 178.14 205.456 177.675C205.09 177.211 204.966 176.627 205.086 175.924C205.179 175.349 205.422 174.848 205.814 174.422C206.211 173.991 206.711 173.657 207.316 173.418C207.922 173.175 208.591 173.054 209.324 173.054C210.393 173.054 211.196 173.284 211.733 173.744C212.27 174.2 212.577 174.812 212.654 175.579ZM222.651 183.198C221.718 183.198 220.938 182.985 220.311 182.559C219.685 182.129 219.244 181.528 218.988 180.756C218.737 179.981 218.694 179.08 218.86 178.053C219.022 177.047 219.348 176.169 219.838 175.419C220.333 174.669 220.951 174.087 221.692 173.674C222.438 173.261 223.267 173.054 224.179 173.054C225.112 173.054 225.89 173.269 226.512 173.7C227.138 174.13 227.579 174.733 227.835 175.509C228.091 176.284 228.135 177.188 227.969 178.219C227.807 179.216 227.477 180.089 226.978 180.839C226.484 181.585 225.866 182.165 225.125 182.578C224.383 182.991 223.559 183.198 222.651 183.198ZM222.76 181.594C223.373 181.594 223.908 181.432 224.364 181.108C224.824 180.784 225.199 180.354 225.489 179.817C225.779 179.28 225.977 178.692 226.083 178.053C226.181 177.435 226.179 176.87 226.077 176.359C225.979 175.843 225.766 175.43 225.438 175.119C225.11 174.808 224.654 174.652 224.07 174.652C223.456 174.652 222.917 174.816 222.453 175.144C221.993 175.468 221.618 175.901 221.328 176.442C221.042 176.983 220.848 177.573 220.746 178.212C220.648 178.826 220.648 179.391 220.746 179.906C220.844 180.418 221.057 180.827 221.385 181.134C221.713 181.44 222.172 181.594 222.76 181.594ZM232.193 177.17L231.234 183H229.323L230.959 173.182H232.794L232.525 174.78H232.646C232.958 174.256 233.382 173.838 233.919 173.527C234.46 173.212 235.099 173.054 235.836 173.054C236.501 173.054 237.059 173.195 237.511 173.476C237.967 173.753 238.289 174.166 238.476 174.716C238.668 175.266 238.698 175.945 238.566 176.755L237.517 183H235.606L236.61 176.985C236.725 176.273 236.631 175.717 236.328 175.317C236.03 174.912 235.555 174.71 234.903 174.71C234.46 174.71 234.048 174.805 233.669 174.997C233.294 175.189 232.977 175.47 232.717 175.841C232.461 176.207 232.286 176.651 232.193 177.17ZM251.735 178.928L252.694 173.182H254.611L252.975 183H251.096L251.383 181.3H251.281C250.974 181.824 250.539 182.261 249.977 182.61C249.419 182.955 248.771 183.128 248.034 183.128C247.403 183.128 246.868 182.989 246.429 182.712C245.995 182.431 245.686 182.016 245.502 181.466C245.319 180.916 245.294 180.237 245.426 179.427L246.474 173.182H248.385L247.382 179.197C247.275 179.866 247.375 180.398 247.682 180.795C247.989 181.191 248.436 181.389 249.025 181.389C249.382 181.389 249.753 181.3 250.137 181.121C250.52 180.942 250.859 180.671 251.153 180.309C251.451 179.947 251.645 179.487 251.735 178.928ZM264.14 175.579L262.357 175.886C262.318 175.66 262.24 175.447 262.12 175.246C262.005 175.046 261.828 174.884 261.59 174.761C261.351 174.633 261.034 174.569 260.637 174.569C260.088 174.569 259.606 174.695 259.193 174.946C258.784 175.197 258.549 175.517 258.49 175.905C258.434 176.22 258.509 176.476 258.713 176.672C258.918 176.864 259.278 177.023 259.794 177.151L261.302 177.509C262.171 177.718 262.794 178.044 263.169 178.487C263.548 178.926 263.68 179.497 263.565 180.2C263.467 180.784 263.211 181.302 262.798 181.754C262.389 182.205 261.865 182.559 261.225 182.815C260.586 183.07 259.874 183.198 259.09 183.198C257.974 183.198 257.105 182.962 256.482 182.489C255.86 182.016 255.541 181.347 255.524 180.482L257.416 180.2C257.45 180.682 257.622 181.046 257.933 181.293C258.249 181.536 258.686 181.658 259.244 181.658C259.883 181.662 260.418 181.528 260.848 181.255C261.279 180.982 261.524 180.652 261.583 180.264C261.634 179.962 261.566 179.71 261.379 179.51C261.195 179.31 260.872 179.156 260.407 179.05L258.822 178.685C257.936 178.477 257.309 178.14 256.943 177.675C256.576 177.211 256.453 176.627 256.572 175.924C256.666 175.349 256.909 174.848 257.301 174.422C257.697 173.991 258.198 173.657 258.803 173.418C259.408 173.175 260.077 173.054 260.81 173.054C261.879 173.054 262.683 173.284 263.22 173.744C263.757 174.2 264.063 174.812 264.14 175.579ZM269.776 169.909L268.063 179.235H266.299L267.673 169.909H269.776ZM266.714 183.121C266.357 183.121 266.058 182.998 265.82 182.751C265.585 182.504 265.47 182.201 265.474 181.843C265.479 181.489 265.611 181.193 265.871 180.955C266.135 180.712 266.442 180.59 266.791 180.59C267.141 180.59 267.439 180.714 267.686 180.961C267.933 181.208 268.048 181.502 268.031 181.843C268.018 182.082 267.95 182.299 267.827 182.495C267.707 182.687 267.55 182.84 267.354 182.955C267.158 183.066 266.945 183.121 266.714 183.121Z" fill="black"/>
<path d="M156.655 80.5904L156.656 80.5901C159.894 79.194 163.347 78.5 167 78.5C170.653 78.5 174.106 79.194 177.344 80.5901L177.345 80.5904C180.553 81.9757 183.359 83.8624 185.748 86.2518C188.138 88.6413 190.023 91.4471 191.407 94.6554C192.805 97.893 193.5 101.346 193.5 105C193.5 108.654 192.805 112.107 191.407 115.345C190.023 118.553 188.138 121.359 185.748 123.748C183.359 126.138 180.553 128.023 177.345 129.407C174.107 130.805 170.654 131.5 167 131.5C163.346 131.5 159.893 130.805 156.655 129.407C153.447 128.023 150.641 126.138 148.252 123.748C145.862 121.359 143.977 118.553 142.593 115.345C141.195 112.107 140.5 108.654 140.5 105C140.5 101.347 141.195 97.8935 142.593 94.656L156.655 80.5904ZM156.655 80.5904C153.447 81.9757 150.641 83.8624 148.252 86.2518C145.862 88.6413 143.977 91.4471 142.593 94.6554L156.655 80.5904ZM159.25 98.3125V111.688C159.25 112.411 159.41 113.12 159.792 113.756C160.174 114.393 160.725 114.868 161.366 115.204C162.003 115.537 162.699 115.721 163.432 115.686C164.163 115.65 164.836 115.401 165.437 115.011C165.439 115.01 165.441 115.009 165.442 115.008L175.783 108.405C177.043 107.662 177.688 106.45 177.688 105C177.688 103.55 177.043 102.338 175.783 101.595L165.442 94.9923C165.441 94.9911 165.439 94.9899 165.437 94.9887C164.836 94.5991 164.163 94.3499 163.432 94.3143C162.699 94.2785 162.003 94.4626 161.366 94.7963C160.725 95.1323 160.174 95.6069 159.792 96.2439C159.41 96.8798 159.25 97.589 159.25 98.3125ZM180.097 118.097C180.097 118.097 180.097 118.097 180.097 118.097C176.483 121.709 172.146 123.5 167 123.5C161.853 123.5 157.517 121.709 153.906 118.097C150.292 114.483 148.5 110.146 148.5 105C148.5 99.8536 150.292 95.5167 153.906 91.9032C157.517 88.2914 161.853 86.5 167 86.5C172.146 86.5 176.483 88.2912 180.097 91.9029C180.097 91.903 180.097 91.9031 180.097 91.9032L180.097 118.097Z" fill="black" stroke="white" stroke-width="3"/>
<defs>
<clipPath id="clip0_1_131">
<rect width="218" height="116" fill="white" transform="translate(65 38)"/>
</clipPath>
</defs>
</svg>
