<svg width="40" height="40" viewBox="0 0 40 40" fill="none" xmlns="http://www.w3.org/2000/svg">
<circle cx="20" cy="20" r="20" fill="#781C24"/>
<path d="M17.3339 28.3718L17.3275 28.3581L17.3257 28.3542L17.1961 28.0792L17.3257 28.3542L17.3275 28.358L17.334 28.3718L17.3339 28.3718ZM17.3339 28.3718L17.3275 28.3663M17.3339 28.3718L17.3275 28.3663M17.3275 28.3663L17.3256 28.3647M17.3275 28.3663L17.3256 28.3647M17.3256 28.3647L17.0874 28.1631L17.3256 28.3647ZM22.553 12.251L22.561 12.2546L22.5691 12.258C23.3294 12.5814 24.0977 13.0448 24.6843 13.8382C25.265 14.6236 25.7373 15.8269 25.7373 17.7547C25.7373 20.0986 25.9715 21.5718 26.4407 22.7046C26.827 23.6373 27.369 24.3036 27.8847 24.9377C27.9877 25.0643 28.0896 25.1896 28.189 25.3154C28.1911 25.3196 28.1971 25.3345 28.1993 25.3657C28.2027 25.4164 28.1931 25.4844 28.1643 25.5517C28.1354 25.6193 28.1003 25.6567 28.0817 25.671C28.0785 25.6734 28.0762 25.675 28.0746 25.6759H12.3252C12.3252 25.6759 12.3252 25.676 12.3252 25.676C12.3252 25.676 12.3252 25.6761 12.3252 25.6761C12.3252 25.6761 12.3252 25.6762 12.3252 25.6763C12.3251 25.6768 12.324 25.6768 12.3158 25.6706C12.2977 25.6567 12.2632 25.6201 12.2348 25.5536C12.2066 25.4872 12.1971 25.4199 12.2007 25.3694C12.203 25.3373 12.2094 25.3222 12.2114 25.3183C12.3115 25.1916 12.4141 25.0654 12.5178 24.938C13.0334 24.3042 13.5754 23.6379 13.9617 22.7057C14.4312 21.5728 14.6656 20.0995 14.6656 17.7556C14.6656 15.8271 15.1376 14.6243 15.718 13.8394C16.3043 13.0465 17.0725 12.5831 17.8343 12.2587L17.8419 12.2554L17.8495 12.252C18.1009 12.14 18.3223 11.9752 18.502 11.7724C18.6815 11.5698 18.8159 11.3332 18.9001 11.0796L18.9074 11.0577L18.9136 11.0355C19.1378 10.239 19.6918 9.80005 20.201 9.80005C20.7097 9.80005 21.2629 10.2382 21.4889 11.0362L21.4952 11.0585L21.5026 11.0805C21.5871 11.3338 21.7217 11.5698 21.9012 11.772C22.0808 11.9744 22.302 12.139 22.553 12.251ZM12.2121 25.3172C12.2121 25.3172 12.2119 25.3175 12.2117 25.3179L12.2121 25.3172ZM23.0666 28.3938L23.0511 28.3918L23.0666 29.0501L23.0743 29.05C23.0717 29.05 23.0692 29.0501 23.0666 29.05C22.9624 29.0497 22.8614 29.0261 22.7707 28.9831C22.6781 28.9392 22.6007 28.8772 22.541 28.8057C22.4815 28.7344 22.4401 28.6544 22.4161 28.5725C22.3921 28.4907 22.3849 28.4059 22.3943 28.3227L23.0243 28.3939L23.0331 28.3949L23.0488 28.3967L23.0666 28.3987L23.0693 28.399L23.388 28.435L23.0692 28.3942L23.0666 28.3938ZM17.3434 28.392L17.3275 28.3938L17.3254 28.394L17.006 28.4299L17.3254 28.3984L17.3275 28.3982L17.3455 28.3964L17.6222 28.9839L17.3434 28.392Z" stroke="white" stroke-width="2"/>
</svg>
