<svg width="11" height="16" viewBox="0 0 11 16" fill="none" xmlns="http://www.w3.org/2000/svg">
<path d="M2.12898 3.56794C2.99871 3.56794 3.70376 2.90034 3.70376 2.07682C3.70376 1.25329 2.99871 0.585693 2.12898 0.585693C1.25925 0.585693 0.554199 1.25329 0.554199 2.07682C0.554199 2.90034 1.25925 3.56794 2.12898 3.56794Z" fill="black"/>
<path d="M2.12898 15.4969C2.99871 15.4969 3.70376 14.8293 3.70376 14.0058C3.70376 13.1823 2.99871 12.5147 2.12898 12.5147C1.25925 12.5147 0.554199 13.1823 0.554199 14.0058C0.554199 14.8293 1.25925 15.4969 2.12898 15.4969Z" fill="black"/>
<path d="M8.4281 3.56794C9.29783 3.56794 10.0029 2.90034 10.0029 2.07682C10.0029 1.25329 9.29783 0.585693 8.4281 0.585693C7.55837 0.585693 6.85332 1.25329 6.85332 2.07682C6.85332 2.90034 7.55837 3.56794 8.4281 3.56794Z" fill="black"/>
<path d="M8.4281 15.4969C9.29783 15.4969 10.0029 14.8293 10.0029 14.0058C10.0029 13.1823 9.29783 12.5147 8.4281 12.5147C7.55837 12.5147 6.85332 13.1823 6.85332 14.0058C6.85332 14.8293 7.55837 15.4969 8.4281 15.4969Z" fill="black"/>
<path d="M8.4281 9.53244C9.29783 9.53244 10.0029 8.86484 10.0029 8.04132C10.0029 7.21779 9.29783 6.55019 8.4281 6.55019C7.55837 6.55019 6.85332 7.21779 6.85332 8.04132C6.85332 8.86484 7.55837 9.53244 8.4281 9.53244Z" fill="black"/>
<path d="M2.12898 9.53244C2.99871 9.53244 3.70376 8.86484 3.70376 8.04132C3.70376 7.21779 2.99871 6.55019 2.12898 6.55019C1.25925 6.55019 0.554199 7.21779 0.554199 8.04132C0.554199 8.86484 1.25925 9.53244 2.12898 9.53244Z" fill="black"/>
</svg>
