<svg width="40" height="40" viewBox="0 0 40 40" fill="none" xmlns="http://www.w3.org/2000/svg">
<circle cx="20" cy="20" r="20" fill="#781C24"/>
<path d="M20 10C14.477 10 10 14.477 10 20C10 25.523 14.477 30 20 30C25.523 30 30 25.523 30 20C30 14.477 25.523 10 20 10Z" stroke="white" stroke-width="1.5" stroke-linecap="round" stroke-linejoin="round"/>
<path d="M12.271 26.346C12.271 26.346 14.5 23.5 20 23.5C25.5 23.5 27.73 26.346 27.73 26.346M20 20C20.7956 20 21.5587 19.6839 22.1213 19.1213C22.6839 18.5587 23 17.7956 23 17C23 16.2044 22.6839 15.4413 22.1213 14.8787C21.5587 14.3161 20.7956 14 20 14C19.2043 14 18.4413 14.3161 17.8787 14.8787C17.3161 15.4413 17 16.2044 17 17C17 17.7956 17.3161 18.5587 17.8787 19.1213C18.4413 19.6839 19.2043 20 20 20Z" stroke="white" stroke-width="1.5" stroke-linecap="round" stroke-linejoin="round"/>
</svg>
