<svg width="22" height="21" viewBox="0 0 22 21" fill="none" xmlns="http://www.w3.org/2000/svg">
<path d="M18.2021 17.2131C20.1649 15.3377 21.2676 12.7942 21.2676 10.142C21.2676 7.48988 20.1649 4.94634 18.2021 3.07098C16.2393 1.19561 13.5772 0.142045 10.8014 0.142044C8.02558 0.142045 5.36345 1.19561 3.40066 3.07098C1.43786 4.94634 0.335176 7.48988 0.335176 10.142C0.335177 12.7942 1.43786 15.3377 3.40066 17.2131C5.36346 19.0885 8.02558 20.142 10.8014 20.142C13.5772 20.142 16.2393 19.0885 18.2021 17.2131V17.2131ZM15.3334 9.51714C15.4203 9.5157 15.5065 9.53079 15.5872 9.56155C15.6679 9.59231 15.7413 9.63811 15.8033 9.69628C15.8652 9.75445 15.9144 9.82383 15.948 9.90036C15.9816 9.97689 15.9989 10.0591 15.9989 10.142C15.9989 10.225 15.9816 10.3072 15.948 10.3837C15.9144 10.4603 15.8652 10.5296 15.8033 10.5878C15.7413 10.646 15.6679 10.6918 15.5872 10.7225C15.5065 10.7533 15.4203 10.7684 15.3334 10.767L7.75506 10.767L10.3157 13.2135C10.4384 13.3307 10.5073 13.4897 10.5073 13.6555C10.5073 13.8212 10.4384 13.9802 10.3157 14.0974C10.193 14.2146 10.0267 14.2805 9.85317 14.2805C9.67968 14.2805 9.5133 14.2146 9.39063 14.0974L5.71339 10.584C5.59071 10.4668 5.5218 10.3078 5.5218 10.142C5.5218 9.97628 5.59071 9.81731 5.71339 9.7001L9.39063 6.18667C9.5133 6.06946 9.67968 6.00361 9.85317 6.00361C10.0267 6.00361 10.193 6.06946 10.3157 6.18667C10.4384 6.30388 10.5073 6.46285 10.5073 6.62861C10.5073 6.79437 10.4384 6.95334 10.3157 7.07055L7.75506 9.51714L15.3334 9.51714Z" fill="#6A1D24"/>
</svg>
