<svg width="22" height="22" viewBox="0 0 22 22" fill="none" xmlns="http://www.w3.org/2000/svg">
<path d="M0.880001 1.98H5.5V0.22C5.5 0.099 5.599 0 5.72 0H7.26C7.381 0 7.48 0.099 7.48 0.22V1.98H14.52V0.22C14.52 0.099 14.619 0 14.74 0H16.28C16.401 0 16.5 0.099 16.5 0.22V1.98H21.12C21.6068 1.98 22 2.37325 22 2.86V21.12C22 21.6068 21.6068 22 21.12 22H0.880001C0.39325 22 0 21.6068 0 21.12V2.86C0 2.37325 0.39325 1.98 0.880001 1.98ZM1.98 20.02H20.02V9.57H1.98V20.02ZM20.02 7.7V3.96H16.5V5.28C16.5 5.401 16.401 5.5 16.28 5.5H14.74C14.619 5.5 14.52 5.401 14.52 5.28V3.96H7.48V5.28C7.48 5.401 7.381 5.5 7.26 5.5H5.72C5.599 5.5 5.5 5.401 5.5 5.28V3.96H1.98V7.7H20.02Z" fill="#B0B9C7"/>
</svg>
