<svg width="40" height="40" viewBox="0 0 40 40" fill="none" xmlns="http://www.w3.org/2000/svg">
<circle cx="20" cy="20" r="20" fill="#781C24"/>
<path d="M12 28C11.45 28 10.979 27.804 10.587 27.412C10.195 27.02 9.99934 26.5493 10 26V14C10 13.45 10.196 12.979 10.588 12.587C10.98 12.195 11.4507 11.9993 12 12H28C28.55 12 29.021 12.196 29.413 12.588C29.805 12.98 30.0007 13.4507 30 14V26C30 26.55 29.804 27.021 29.412 27.413C29.02 27.805 28.5493 28.0007 28 28H12ZM20 21L12 16V26H28V16L20 21ZM20 19L28 14H12L20 19ZM12 16V14V26V16Z" fill="white"/>
</svg>
