<svg width="21" height="21" viewBox="0 0 21 21" fill="none" xmlns="http://www.w3.org/2000/svg">
<path d="M3.11111 3.07107C1.14831 4.94643 0.0456269 7.48997 0.0456263 10.1421C0.045627 12.7943 1.14831 15.3378 3.11111 17.2132C5.07391 19.0886 7.73603 20.1421 10.5118 20.1421C13.2877 20.1421 15.9498 19.0886 17.9126 17.2132C19.8754 15.3378 20.9781 12.7943 20.9781 10.1421C20.9781 7.48997 19.8754 4.94643 17.9126 3.07107C15.9498 1.1957 13.2877 0.142136 10.5118 0.142136C7.73603 0.142136 5.07391 1.1957 3.11111 3.07107L3.11111 3.07107ZM5.97982 10.767C5.89297 10.7685 5.80669 10.7534 5.72602 10.7226C5.64535 10.6919 5.57189 10.6461 5.50994 10.5879C5.44799 10.5297 5.39879 10.4604 5.3652 10.3838C5.33161 10.3073 5.31431 10.2251 5.31431 10.1421C5.31431 10.0591 5.33161 9.97698 5.3652 9.90045C5.39879 9.82392 5.44799 9.75454 5.50994 9.69637C5.57189 9.6382 5.64535 9.5924 5.72602 9.56164C5.8067 9.53089 5.89297 9.51579 5.97982 9.51723H13.5582L10.9975 7.07064C10.8748 6.95343 10.8059 6.79446 10.8059 6.6287C10.8059 6.46294 10.8748 6.30397 10.9975 6.18676C11.1202 6.06955 11.2866 6.0037 11.4601 6.0037C11.6335 6.0037 11.7999 6.06955 11.9226 6.18676L15.5998 9.70019C15.7225 9.8174 15.7914 9.97637 15.7914 10.1421C15.7914 10.3079 15.7225 10.4669 15.5998 10.5841L11.9226 14.0975C11.7999 14.2147 11.6335 14.2806 11.4601 14.2806C11.2866 14.2806 11.1202 14.2147 10.9975 14.0975C10.8748 13.9803 10.8059 13.8213 10.8059 13.6556C10.8059 13.4898 10.8748 13.3308 10.9975 13.2136L13.5582 10.767L5.97982 10.767Z" fill="#6A1D24"/>
</svg>
