<svg width="50" height="50" viewBox="0 0 50 50" fill="none" xmlns="http://www.w3.org/2000/svg">
<circle cx="25" cy="25" r="24" fill="#781C24" stroke="white" stroke-width="2"/>
<path d="M34.24 32.195H16.76C16.3396 32.195 16 32.5346 16 32.955V34.81C16 34.9145 16.0855 35 16.19 35H34.81C34.9145 35 35 34.9145 35 34.81V32.955C35 32.5346 34.6604 32.195 34.24 32.195ZM19.4604 30.2C19.5079 30.2 19.5554 30.1952 19.6029 30.1881L23.5976 29.4875C23.6451 29.478 23.6903 29.4566 23.7235 29.421L33.7911 19.3534C33.8131 19.3314 33.8306 19.3053 33.8425 19.2766C33.8544 19.2478 33.8606 19.217 33.8606 19.1859C33.8606 19.1548 33.8544 19.124 33.8425 19.0953C33.8306 19.0666 33.8131 19.0405 33.7911 19.0185L29.8439 15.0689C29.7987 15.0238 29.7394 15 29.6752 15C29.6111 15 29.5518 15.0238 29.5066 15.0689L19.439 25.1365C19.4034 25.1721 19.382 25.2149 19.3725 25.2624L18.6719 29.2571C18.6488 29.3844 18.657 29.5153 18.6959 29.6386C18.7348 29.7619 18.8032 29.8739 18.8951 29.9649C19.0519 30.1169 19.249 30.2 19.4604 30.2Z" fill="white"/>
</svg>
