<svg width="40" height="40" viewBox="0 0 40 40" fill="none" xmlns="http://www.w3.org/2000/svg">
<circle cx="20" cy="20" r="20" fill="#781C24"/>
<path d="M14 26.5H17V20.5H23V26.5H26V17.5L20 13L14 17.5V26.5ZM14 28.5C13.45 28.5 12.979 28.304 12.587 27.912C12.195 27.52 11.9993 27.0493 12 26.5V17.5C12 17.1833 12.071 16.8833 12.213 16.6C12.355 16.3167 12.5507 16.0833 12.8 15.9L18.8 11.4C18.9833 11.2667 19.175 11.1667 19.375 11.1C19.575 11.0333 19.7833 11 20 11C20.2167 11 20.425 11.0333 20.625 11.1C20.825 11.1667 21.0167 11.2667 21.2 11.4L27.2 15.9C27.45 16.0833 27.646 16.3167 27.788 16.6C27.93 16.8833 28.0007 17.1833 28 17.5V26.5C28 27.05 27.804 27.521 27.412 27.913C27.02 28.305 26.5493 28.5007 26 28.5H21V22.5H19V28.5H14Z" fill="white"/>
</svg>
