<svg width="163" height="102" viewBox="0 0 163 102" fill="none" xmlns="http://www.w3.org/2000/svg">
<path d="M4.55795 95.0782C4.62009 95.0782 4.65116 95.1108 4.65116 95.176V95.8017C4.65116 95.8669 4.62009 95.8994 4.55795 95.8994H2.76832C2.74347 95.8994 2.73104 95.9125 2.73104 95.9385V101.824C2.73104 101.889 2.69997 101.922 2.63783 101.922H1.92944C1.8673 101.922 1.83623 101.889 1.83623 101.824V95.9385C1.83623 95.9125 1.8238 95.8994 1.79894 95.8994H0.0932096C0.0310699 95.8994 0 95.8669 0 95.8017V95.176C0 95.1108 0.0310699 95.0782 0.0932096 95.0782H4.55795Z" fill="#DAACB4"/>
<path d="M13.1166 95.176C13.1166 95.1108 13.1477 95.0782 13.2098 95.0782H13.9182C13.9804 95.0782 14.0114 95.1108 14.0114 95.176V101.824C14.0114 101.889 13.9804 101.922 13.9182 101.922H13.2098C13.1477 101.922 13.1166 101.889 13.1166 101.824V98.9204C13.1166 98.8943 13.1042 98.8813 13.0793 98.8813H10.4229C10.398 98.8813 10.3856 98.8943 10.3856 98.9204V101.824C10.3856 101.889 10.3545 101.922 10.2924 101.922H9.58398C9.52184 101.922 9.49077 101.889 9.49077 101.824V95.176C9.49077 95.1108 9.52184 95.0782 9.58398 95.0782H10.2924C10.3545 95.0782 10.3856 95.1108 10.3856 95.176V98.0307C10.3856 98.0568 10.398 98.0698 10.4229 98.0698H13.0793C13.1042 98.0698 13.1166 98.0568 13.1166 98.0307V95.176Z" fill="#DAACB4"/>
<path d="M23.5611 95.7919C23.5611 95.8571 23.53 95.8897 23.4678 95.8897H20.1589C20.134 95.8897 20.1216 95.9027 20.1216 95.9288V98.0307C20.1216 98.0568 20.134 98.0698 20.1589 98.0698H22.4332C22.4954 98.0698 22.5264 98.1024 22.5264 98.1676V98.7835C22.5264 98.8487 22.4954 98.8813 22.4332 98.8813H20.1589C20.134 98.8813 20.1216 98.8943 20.1216 98.9204V101.071C20.1216 101.097 20.134 101.11 20.1589 101.11H23.4678C23.53 101.11 23.5611 101.143 23.5611 101.208V101.824C23.5611 101.889 23.53 101.922 23.4678 101.922H19.32C19.2579 101.922 19.2268 101.889 19.2268 101.824V95.176C19.2268 95.1108 19.2579 95.0782 19.32 95.0782H23.4678C23.53 95.0782 23.5611 95.1108 23.5611 95.176V95.7919Z" fill="#DAACB4"/>
<path d="M32.4873 101.922C32.4314 101.922 32.3941 101.896 32.3755 101.844L32.0399 100.7C32.0337 100.68 32.0213 100.67 32.0026 100.67H29.3834C29.3648 100.67 29.3524 100.68 29.3462 100.7L29.0106 101.844C28.992 101.896 28.9547 101.922 28.8988 101.922H28.1438C28.0754 101.922 28.0505 101.886 28.0692 101.814L30.1105 95.1564C30.1291 95.1043 30.1664 95.0782 30.2223 95.0782H31.1544C31.2103 95.0782 31.2476 95.1043 31.2663 95.1564L33.3262 101.814L33.3355 101.853C33.3355 101.899 33.3076 101.922 33.2516 101.922H32.4873ZM29.5792 99.8785C29.573 99.8915 29.573 99.9046 29.5792 99.9176C29.5916 99.9241 29.604 99.9274 29.6165 99.9274H31.7603C31.7727 99.9274 31.782 99.9241 31.7882 99.9176C31.8007 99.9046 31.8038 99.8915 31.7976 99.8785L30.7163 96.2514C30.7101 96.2384 30.7008 96.2318 30.6884 96.2318C30.6759 96.2318 30.6666 96.2384 30.6604 96.2514L29.5792 99.8785Z" fill="#DAACB4"/>
<path d="M41.5996 95.0782C41.6618 95.0782 41.6929 95.1108 41.6929 95.176V95.8017C41.6929 95.8669 41.6618 95.8994 41.5996 95.8994H39.81C39.7852 95.8994 39.7727 95.9125 39.7727 95.9385V101.824C39.7727 101.889 39.7417 101.922 39.6795 101.922H38.9711C38.909 101.922 38.8779 101.889 38.8779 101.824V95.9385C38.8779 95.9125 38.8655 95.8994 38.8406 95.8994H37.1349C37.0728 95.8994 37.0417 95.8669 37.0417 95.8017V95.176C37.0417 95.1108 37.0728 95.0782 37.1349 95.0782H41.5996Z" fill="#DAACB4"/>
<path d="M50.2515 101.922C50.2018 101.922 50.1676 101.899 50.149 101.853L48.8441 98.9302C48.8379 98.9106 48.8254 98.9008 48.8068 98.9008H47.4646C47.4397 98.9008 47.4273 98.9139 47.4273 98.9399V101.824C47.4273 101.889 47.3962 101.922 47.3341 101.922H46.6257C46.5635 101.922 46.5325 101.889 46.5325 101.824V95.176C46.5325 95.1108 46.5635 95.0782 46.6257 95.0782H49.133C49.5059 95.0782 49.8321 95.1597 50.1117 95.3226C50.3976 95.4856 50.6182 95.7137 50.7735 96.007C50.9289 96.3003 51.0065 96.6392 51.0065 97.0237C51.0065 97.48 50.8916 97.8678 50.6617 98.1872C50.438 98.5 50.1241 98.7118 49.7202 98.8226C49.6954 98.8357 49.6892 98.852 49.7016 98.8715L51.0531 101.804C51.0593 101.818 51.0625 101.834 51.0625 101.853C51.0625 101.899 51.0376 101.922 50.9879 101.922H50.2515ZM47.4646 95.8897C47.4397 95.8897 47.4273 95.9027 47.4273 95.9288V98.1187C47.4273 98.1448 47.4397 98.1578 47.4646 98.1578H49.0212C49.3505 98.1578 49.6146 98.0568 49.8134 97.8547C50.0123 97.6462 50.1117 97.3724 50.1117 97.0335C50.1117 96.6881 50.0123 96.4111 49.8134 96.2025C49.6146 95.9939 49.3505 95.8897 49.0212 95.8897H47.4646Z" fill="#DAACB4"/>
<path d="M60.3115 95.7919C60.3115 95.8571 60.2804 95.8897 60.2183 95.8897H56.9093C56.8845 95.8897 56.872 95.9027 56.872 95.9288V98.0307C56.872 98.0568 56.8845 98.0698 56.9093 98.0698H59.1836C59.2458 98.0698 59.2768 98.1024 59.2768 98.1676V98.7835C59.2768 98.8487 59.2458 98.8813 59.1836 98.8813H56.9093C56.8845 98.8813 56.872 98.8943 56.872 98.9204V101.071C56.872 101.097 56.8845 101.11 56.9093 101.11H60.2183C60.2804 101.11 60.3115 101.143 60.3115 101.208V101.824C60.3115 101.889 60.2804 101.922 60.2183 101.922H56.0704C56.0083 101.922 55.9772 101.889 55.9772 101.824V95.176C55.9772 95.1108 56.0083 95.0782 56.0704 95.0782H60.2183C60.2804 95.0782 60.3115 95.1108 60.3115 95.176V95.7919Z" fill="#DAACB4"/>
<path d="M75.0931 95.1369C75.1242 95.0978 75.1615 95.0782 75.205 95.0782H75.9134C75.9755 95.0782 76.0066 95.1108 76.0066 95.176V101.824C76.0066 101.889 75.9755 101.922 75.9134 101.922H75.205C75.1428 101.922 75.1118 101.889 75.1118 101.824V96.8184C75.1118 96.7989 75.1056 96.7858 75.0931 96.7793C75.0807 96.7728 75.0714 96.7793 75.0652 96.7989L73.7323 98.9302C73.7074 98.9693 73.6701 98.9888 73.6204 98.9888H73.2662C73.2227 98.9888 73.1854 98.9693 73.1544 98.9302L71.8121 96.8184C71.8059 96.7989 71.7966 96.7924 71.7842 96.7989C71.7718 96.8054 71.7655 96.8184 71.7655 96.838V101.824C71.7655 101.889 71.7345 101.922 71.6723 101.922H70.9639C70.9018 101.922 70.8707 101.889 70.8707 101.824V95.176C70.8707 95.1108 70.9018 95.0782 70.9639 95.0782H71.6723C71.722 95.0782 71.7593 95.0978 71.7842 95.1369L73.4154 97.6983C73.4216 97.7048 73.4309 97.7081 73.4433 97.7081C73.4557 97.7081 73.4651 97.7048 73.4713 97.6983L75.0931 95.1369Z" fill="#DAACB4"/>
<path d="M85.2235 101.922C85.1676 101.922 85.1303 101.896 85.1117 101.844L84.7761 100.7C84.7699 100.68 84.7575 100.67 84.7389 100.67H82.1197C82.101 100.67 82.0886 100.68 82.0824 100.7L81.7468 101.844C81.7282 101.896 81.6909 101.922 81.635 101.922H80.88C80.8116 101.922 80.7868 101.886 80.8054 101.814L82.8467 95.1564C82.8653 95.1043 82.9026 95.0782 82.9586 95.0782H83.8906C83.9466 95.0782 83.9839 95.1043 84.0025 95.1564L86.0624 101.814L86.0718 101.853C86.0718 101.899 86.0438 101.922 85.9879 101.922H85.2235ZM82.3154 99.8785C82.3092 99.8915 82.3092 99.9046 82.3154 99.9176C82.3278 99.9241 82.3403 99.9274 82.3527 99.9274H84.4965C84.5089 99.9274 84.5183 99.9241 84.5245 99.9176C84.5369 99.9046 84.54 99.8915 84.5338 99.8785L83.4526 96.2514C83.4464 96.2384 83.437 96.2318 83.4246 96.2318C83.4122 96.2318 83.4029 96.2384 83.3966 96.2514L82.3154 99.8785Z" fill="#DAACB4"/>
<path d="M94.7019 95.176C94.7019 95.1108 94.7329 95.0782 94.7951 95.0782H95.5035C95.5656 95.0782 95.5967 95.1108 95.5967 95.176V101.824C95.5967 101.889 95.5656 101.922 95.5035 101.922H94.823C94.7795 101.922 94.7423 101.899 94.7112 101.853L91.7937 96.8575C91.7875 96.838 91.7782 96.8315 91.7658 96.838C91.7533 96.838 91.7471 96.8478 91.7471 96.8673L91.7564 101.824C91.7564 101.889 91.7254 101.922 91.6632 101.922H90.9548C90.8927 101.922 90.8616 101.889 90.8616 101.824V95.176C90.8616 95.1108 90.8927 95.0782 90.9548 95.0782H91.6446C91.6881 95.0782 91.7254 95.101 91.7564 95.1466L94.6646 100.142C94.6708 100.162 94.6801 100.172 94.6925 100.172C94.705 100.165 94.7112 100.152 94.7112 100.133L94.7019 95.176Z" fill="#DAACB4"/>
<path d="M104.823 101.922C104.767 101.922 104.73 101.896 104.711 101.844L104.376 100.7C104.369 100.68 104.357 100.67 104.338 100.67H101.719C101.701 100.67 101.688 100.68 101.682 100.7L101.346 101.844C101.328 101.896 101.29 101.922 101.234 101.922H100.479C100.411 101.922 100.386 101.886 100.405 101.814L102.446 95.1564C102.465 95.1043 102.502 95.0782 102.558 95.0782H103.49C103.546 95.0782 103.583 95.1043 103.602 95.1564L105.662 101.814L105.671 101.853C105.671 101.899 105.643 101.922 105.587 101.922H104.823ZM101.915 99.8785C101.909 99.8915 101.909 99.9046 101.915 99.9176C101.927 99.9241 101.94 99.9274 101.952 99.9274H104.096C104.108 99.9274 104.118 99.9241 104.124 99.9176C104.136 99.9046 104.14 99.8915 104.133 99.8785L103.052 96.2514C103.046 96.2384 103.037 96.2318 103.024 96.2318C103.012 96.2318 103.002 96.2384 102.996 96.2514L101.915 99.8785Z" fill="#DAACB4"/>
<path d="M112.422 102C111.974 102 111.577 101.909 111.229 101.726C110.887 101.537 110.62 101.273 110.427 100.934C110.241 100.589 110.147 100.195 110.147 99.7514V97.2486C110.147 96.7989 110.241 96.4046 110.427 96.0656C110.62 95.7267 110.887 95.466 111.229 95.2835C111.577 95.0945 111.974 95 112.422 95C112.869 95 113.264 95.0912 113.606 95.2737C113.947 95.4562 114.211 95.7104 114.398 96.0363C114.59 96.3557 114.687 96.7174 114.687 97.1215V97.229C114.687 97.2942 114.656 97.3268 114.594 97.3268H113.885C113.823 97.3268 113.792 97.2942 113.792 97.229V97.1411C113.792 96.75 113.665 96.4339 113.41 96.1927C113.161 95.9451 112.832 95.8212 112.422 95.8212C112.005 95.8212 111.67 95.9483 111.415 96.2025C111.167 96.4567 111.042 96.7956 111.042 97.2193V99.7807C111.042 100.204 111.173 100.543 111.434 100.797C111.695 101.052 112.037 101.179 112.459 101.179C112.869 101.179 113.192 101.068 113.428 100.846C113.671 100.618 113.792 100.309 113.792 99.9176V99.1648C113.792 99.1387 113.78 99.1257 113.755 99.1257H112.496C112.434 99.1257 112.403 99.0931 112.403 99.0279V98.4218C112.403 98.3566 112.434 98.324 112.496 98.324H114.594C114.656 98.324 114.687 98.3566 114.687 98.4218V99.6634C114.687 100.413 114.482 100.99 114.072 101.394C113.668 101.798 113.118 102 112.422 102Z" fill="#DAACB4"/>
<path d="M124.104 95.7919C124.104 95.8571 124.073 95.8897 124.01 95.8897H120.701C120.677 95.8897 120.664 95.9027 120.664 95.9288V98.0307C120.664 98.0568 120.677 98.0698 120.701 98.0698H122.976C123.038 98.0698 123.069 98.1024 123.069 98.1676V98.7835C123.069 98.8487 123.038 98.8813 122.976 98.8813H120.701C120.677 98.8813 120.664 98.8943 120.664 98.9204V101.071C120.664 101.097 120.677 101.11 120.701 101.11H124.01C124.073 101.11 124.104 101.143 124.104 101.208V101.824C124.104 101.889 124.073 101.922 124.01 101.922H119.863C119.8 101.922 119.769 101.889 119.769 101.824V95.176C119.769 95.1108 119.8 95.0782 119.863 95.0782H124.01C124.073 95.0782 124.104 95.1108 124.104 95.176V95.7919Z" fill="#DAACB4"/>
<path d="M133.291 95.1369C133.322 95.0978 133.359 95.0782 133.403 95.0782H134.111C134.173 95.0782 134.204 95.1108 134.204 95.176V101.824C134.204 101.889 134.173 101.922 134.111 101.922H133.403C133.341 101.922 133.309 101.889 133.309 101.824V96.8184C133.309 96.7989 133.303 96.7858 133.291 96.7793C133.278 96.7728 133.269 96.7793 133.263 96.7989L131.93 98.9302C131.905 98.9693 131.868 98.9888 131.818 98.9888H131.464C131.42 98.9888 131.383 98.9693 131.352 98.9302L130.01 96.8184C130.004 96.7989 129.994 96.7924 129.982 96.7989C129.969 96.8054 129.963 96.8184 129.963 96.838V101.824C129.963 101.889 129.932 101.922 129.87 101.922H129.162C129.1 101.922 129.068 101.889 129.068 101.824V95.176C129.068 95.1108 129.1 95.0782 129.162 95.0782H129.87C129.92 95.0782 129.957 95.0978 129.982 95.1369L131.613 97.6983C131.619 97.7048 131.629 97.7081 131.641 97.7081C131.653 97.7081 131.663 97.7048 131.669 97.6983L133.291 95.1369Z" fill="#DAACB4"/>
<path d="M143.794 95.7919C143.794 95.8571 143.763 95.8897 143.701 95.8897H140.392C140.367 95.8897 140.355 95.9027 140.355 95.9288V98.0307C140.355 98.0568 140.367 98.0698 140.392 98.0698H142.666C142.728 98.0698 142.759 98.1024 142.759 98.1676V98.7835C142.759 98.8487 142.728 98.8813 142.666 98.8813H140.392C140.367 98.8813 140.355 98.8943 140.355 98.9204V101.071C140.355 101.097 140.367 101.11 140.392 101.11H143.701C143.763 101.11 143.794 101.143 143.794 101.208V101.824C143.794 101.889 143.763 101.922 143.701 101.922H139.553C139.491 101.922 139.46 101.889 139.46 101.824V95.176C139.46 95.1108 139.491 95.0782 139.553 95.0782H143.701C143.763 95.0782 143.794 95.1108 143.794 95.176V95.7919Z" fill="#DAACB4"/>
<path d="M152.599 95.176C152.599 95.1108 152.63 95.0782 152.692 95.0782H153.401C153.463 95.0782 153.494 95.1108 153.494 95.176V101.824C153.494 101.889 153.463 101.922 153.401 101.922H152.72C152.677 101.922 152.64 101.899 152.609 101.853L149.691 96.8575C149.685 96.838 149.676 96.8315 149.663 96.838C149.651 96.838 149.644 96.8478 149.644 96.8673L149.654 101.824C149.654 101.889 149.623 101.922 149.561 101.922H148.852C148.79 101.922 148.759 101.889 148.759 101.824V95.176C148.759 95.1108 148.79 95.0782 148.852 95.0782H149.542C149.585 95.0782 149.623 95.101 149.654 95.1466L152.562 100.142C152.568 100.162 152.577 100.172 152.59 100.172C152.602 100.165 152.609 100.152 152.609 100.133L152.599 95.176Z" fill="#DAACB4"/>
<path d="M162.907 95.0782C162.969 95.0782 163 95.1108 163 95.176V95.8017C163 95.8669 162.969 95.8994 162.907 95.8994H161.117C161.092 95.8994 161.08 95.9125 161.08 95.9385V101.824C161.08 101.889 161.049 101.922 160.987 101.922H160.278C160.216 101.922 160.185 101.889 160.185 101.824V95.9385C160.185 95.9125 160.173 95.8994 160.148 95.8994H158.442C158.38 95.8994 158.349 95.8669 158.349 95.8017V95.176C158.349 95.1108 158.38 95.0782 158.442 95.0782H162.907Z" fill="#DAACB4"/>
<path d="M63.2779 29.2424C67.0484 27.3993 69.9442 25.0431 72.175 22.4649C74.4059 19.8867 75.972 17.0831 77.0689 14.3504C79.2645 8.88511 79.5767 3.69858 79.5749 1.22872C79.5749 0.671177 79.559 0.252135 79.5467 0H66.5088C66.7186 1.04583 67.2036 3.85661 67.2036 7.54098C67.2036 10.7761 66.8297 14.6824 65.5547 18.6509C64.3008 22.5572 62.1634 26.5239 58.6592 29.9384V57.6875H62.9816V29.3862L63.2779 29.2424Z" fill="#DAACB4"/>
<path d="M57.6097 29.491L57.772 29.3347C61.2303 26.0214 63.3219 22.1595 64.5546 18.326C65.7856 14.4942 66.1541 10.6927 66.1524 7.54098C66.1524 3.65774 65.5969 0.758182 65.4346 0H51.3491V57.6875H57.608V29.491H57.6097Z" fill="#A06D73"/>
<path d="M80.1233 19.6362C79.5555 24.6079 76.4181 34.1749 62.874 40.7925H97.3709C83.8268 34.1749 80.6912 24.6079 80.1233 19.6362Z" fill="white"/>
<path d="M101.586 29.9384C98.0728 26.5151 95.9319 22.5288 94.6762 18.603C93.3994 14.6132 93.0256 10.6838 93.0256 7.43622C93.0256 3.86371 93.477 1.11153 93.6939 0H80.7001C80.6983 0.035512 80.6966 0.0674728 80.6948 0.110087C80.6825 0.367549 80.6719 0.745753 80.6719 1.22872C80.6719 3.08067 80.8465 6.46141 81.8605 10.3411C82.8745 14.2226 84.7263 18.5976 88.0717 22.4649C90.3026 25.0431 93.1984 27.3993 96.9689 29.2424L97.2651 29.3862V57.6857H101.589V29.9384H101.586Z" fill="#DAACB4"/>
<path d="M94.7644 0C94.7486 0.0745752 94.7327 0.16158 94.7133 0.262789C94.6428 0.630338 94.5493 1.17012 94.4541 1.85195C94.2654 3.21739 94.0767 5.15635 94.0767 7.43622C94.0767 10.6039 94.4435 14.4268 95.6762 18.2798C96.9107 22.1346 99.0058 26.0161 102.473 29.3347L102.635 29.491V57.6875H108.647V0H94.7644Z" fill="#A06D73"/>
<path d="M87.19 39.6296H73.0552V57.6857H87.19V39.6296Z" fill="white"/>
<path d="M9.68179 69.6908L8.21451 71.8766C7.562 70.9906 6.75958 70.5484 5.81079 70.5484C5.30113 70.5484 4.84613 70.7242 4.44933 71.074C4.05253 71.4238 3.85325 71.8553 3.85325 72.3702C3.85325 72.7271 3.96965 73.0449 4.2042 73.3237C4.43875 73.6025 4.74384 73.8315 5.11948 74.0091C5.49512 74.1884 5.90955 74.3695 6.36455 74.556C6.81778 74.7424 7.26925 74.959 7.71543 75.2094C8.16161 75.4597 8.57252 75.7527 8.94992 76.0883C9.32555 76.4239 9.63065 76.8731 9.8652 77.4378C10.0998 78.0024 10.2161 78.6487 10.2161 79.3767C10.2161 81.0192 9.74175 82.3509 8.7912 83.3718C7.84064 84.3928 6.55678 84.9042 4.9396 84.9042C2.89741 84.9042 1.25201 83.8548 0.00341797 81.756L2.02445 79.7638C2.25195 80.4208 2.63111 80.9783 3.1637 81.4346C3.6963 81.8927 4.28003 82.12 4.91844 82.12C5.54273 82.12 6.04182 81.891 6.41746 81.4346C6.79309 80.9783 6.98179 80.4279 6.98179 79.7851C6.98179 78.8707 6.46331 78.164 5.4281 77.665C5.25704 77.5798 4.84613 77.4076 4.19362 77.1501C3.01556 76.6654 2.12673 76.0972 1.5236 75.4473C0.920465 74.7974 0.618897 73.8937 0.618897 72.7377C0.618897 71.3812 1.06508 70.2359 1.9592 69.3002C2.85332 68.3644 3.96612 67.8975 5.29936 67.8975C6.03653 67.8975 6.83365 68.0661 7.6925 68.4C8.54959 68.732 9.21268 69.1635 9.68179 69.6908Z" fill="white"/>
<path d="M26.0421 74.6835H31.8301V68.3215H34.9586V84.4742H31.8301V77.2546H26.0421V84.4742H22.9136V68.3215H26.0421V74.6835Z" fill="white"/>
<path d="M61.1812 82.4056C59.6839 84.0694 57.7881 84.9003 55.4902 84.9003C53.1923 84.9003 51.2947 84.0694 49.7992 82.4056C48.3019 80.7419 47.5542 78.7319 47.5542 76.3757C47.5542 74.0621 48.3055 72.0698 49.8098 70.399C51.3123 68.7282 53.2064 67.8918 55.4902 67.8918C57.774 67.8918 59.668 68.7282 61.1706 70.399C62.6731 72.0698 63.4262 74.0621 63.4262 76.3757C63.4262 78.7319 62.6767 80.7419 61.1812 82.4056ZM58.8409 72.6043C57.9398 71.5336 56.8234 70.9974 55.4902 70.9974C54.1569 70.9974 53.0406 71.5336 52.1394 72.6043C51.2383 73.675 50.7886 74.8895 50.7886 76.2461C50.7886 77.5458 51.2559 78.7958 52.1923 79.9943C53.1288 81.1947 54.2275 81.793 55.4902 81.793C56.7529 81.793 57.8516 81.1929 58.788 79.9943C59.7245 78.794 60.1918 77.5458 60.1918 76.2461C60.1918 74.8895 59.7403 73.675 58.8409 72.6043Z" fill="white"/>
<path d="M77.8501 68.3198L81.0845 79.3303H81.1268L84.3188 68.105H86.1705L89.4896 79.3303H89.5319L92.6798 68.3198H95.9565L90.5318 84.7939H88.2339L85.0419 74.2326H84.9996L81.9786 84.7939H79.6807L74.5752 68.3198H77.8501Z" fill="white"/>
<path d="M124.999 77.9809V68.3198H128.127V77.3594C128.127 77.8442 128.138 78.2703 128.159 78.6343C128.18 78.9983 128.247 79.4191 128.362 79.8985C128.474 80.3779 128.624 80.7668 128.808 81.0669C128.991 81.3669 129.268 81.6244 129.638 81.8375C130.007 82.0523 130.446 82.1589 130.958 82.1589C131.467 82.1589 131.908 82.0523 132.277 81.8375C132.645 81.6226 132.922 81.3669 133.106 81.0669C133.289 80.7668 133.439 80.3779 133.552 79.8985C133.665 79.4209 133.732 78.9983 133.755 78.6343C133.776 78.2703 133.786 77.8459 133.786 77.3594V68.3198H136.915V77.9809C136.915 80.0938 136.432 81.7771 135.469 83.0254C134.504 84.2754 133 84.9004 130.958 84.9004C128.915 84.9004 127.411 84.2754 126.446 83.0254C125.482 81.7771 124.999 80.0956 124.999 77.9809Z" fill="white"/>
<path d="M153.318 78.4319V84.4725H150.189V68.3198H154.445C158.147 68.3198 159.998 69.9907 159.998 73.3323C159.998 75.0316 159.559 76.3065 158.679 77.157C157.799 78.0075 156.529 78.4319 154.87 78.4319H153.318ZM153.318 70.9335V75.8182H153.956C154.963 75.8182 155.69 75.646 156.138 75.3033C156.584 74.9606 156.808 74.2965 156.808 73.311C156.808 72.354 156.566 71.7183 156.085 71.404C155.604 71.0898 154.865 70.9335 153.872 70.9335H153.318Z" fill="white"/>
</svg>
