<svg width="164" height="97" viewBox="0 0 164 97" fill="none" xmlns="http://www.w3.org/2000/svg">
<path d="M64.8597 29.858C68.7244 27.9761 71.6926 25.5703 73.9792 22.9379C76.2659 20.3054 77.8711 17.4427 78.9955 14.6525C81.246 9.07216 81.5659 3.77644 81.5641 1.25458C81.5641 0.685307 81.5478 0.257443 81.5352 0H68.1713C68.3864 1.06785 68.8835 3.9378 68.8835 7.69974C68.8835 11.003 68.5003 14.9916 67.1934 19.0436C65.9081 23.0321 63.7173 27.0823 60.1255 30.5687V58.902H64.556V30.0049L64.8597 29.858Z" fill="#B71632"/>
<path d="M59.0499 30.1118L59.2162 29.9523C62.761 26.5693 64.9049 22.626 66.1684 18.7118C67.4302 14.7994 67.808 10.9178 67.8061 7.69974C67.8061 3.73474 67.2367 0.774143 67.0704 0H52.6328V58.902H59.0481V30.1118H59.0499Z" fill="#930C1C"/>
<path d="M82.1263 20.0498C81.5443 25.1262 78.3285 34.8945 64.4458 41.6515H99.8051C85.9224 34.8945 82.7084 25.1262 82.1263 20.0498Z" fill="#69040D"/>
<path d="M104.125 30.5687C100.524 27.0733 98.33 23.0031 97.0429 18.9946C95.7342 14.9208 95.351 10.9087 95.351 7.59277C95.351 3.94505 95.8138 1.13493 96.0361 0H82.7174C82.7156 0.0362596 82.7138 0.0688933 82.712 0.112405C82.6993 0.375287 82.6885 0.761453 82.6885 1.25458C82.6885 3.14552 82.8674 6.59744 83.9068 10.5588C84.9462 14.522 86.8442 18.9892 90.2733 22.9379C92.56 25.5703 95.5281 27.9761 99.3929 29.858L99.6966 30.0049V58.9002H104.129V30.5687H104.125Z" fill="#B71632"/>
<path d="M97.1332 0C97.1169 0.0761453 97.1007 0.164981 97.0808 0.268321C97.0085 0.643609 96.9127 1.19476 96.8151 1.89094C96.6216 3.28512 96.4282 5.2649 96.4282 7.59277C96.4282 10.8271 96.8042 14.7305 98.0678 18.6647C99.3331 22.6006 101.481 26.5638 105.034 29.9523L105.201 30.1118V58.902H111.363V0H97.1332Z" fill="#930C1C"/>
<path d="M89.3696 40.464H74.8813V58.9002H89.3696V40.464Z" fill="#69040D"/>
<path d="M9.92375 71.158L8.41979 73.3898C7.75097 72.4851 6.92849 72.0337 5.95598 72.0337C5.43357 72.0337 4.9672 72.2132 4.56048 72.5703C4.15376 72.9275 3.9495 73.368 3.9495 73.8938C3.9495 74.2582 4.0688 74.5827 4.30922 74.8674C4.54963 75.152 4.86236 75.3859 5.24738 75.5672C5.63241 75.7503 6.05721 75.9352 6.52358 76.1256C6.98814 76.316 7.4509 76.5371 7.90823 76.7928C8.36556 77.0484 8.78674 77.3475 9.17358 77.6902C9.55861 78.0328 9.87133 78.4915 10.1117 79.0681C10.3522 79.6446 10.4715 80.3045 10.4715 81.0478C10.4715 82.7248 9.98521 84.0846 9.01089 85.127C8.03657 86.1695 6.72061 86.6916 5.063 86.6916C2.96976 86.6916 1.28323 85.6202 0.00341797 83.4772L2.07497 81.4431C2.30816 82.1139 2.6968 82.6831 3.24271 83.1491C3.78862 83.6168 4.38695 83.8489 5.04131 83.8489C5.68122 83.8489 6.19278 83.615 6.57781 83.1491C6.96283 82.6831 7.15625 82.1211 7.15625 81.4648C7.15625 80.5311 6.6248 79.8096 5.56372 79.3001C5.38838 79.2131 4.9672 79.0372 4.29837 78.7744C3.09087 78.2794 2.17982 77.6993 1.5616 77.0357C0.943391 76.3722 0.634284 75.4493 0.634284 74.2691C0.634284 72.884 1.09162 71.7146 2.00809 70.7592C2.92456 69.8037 4.06519 69.3269 5.43176 69.3269C6.18736 69.3269 7.00441 69.4991 7.88473 69.84C8.76324 70.179 9.44292 70.6196 9.92375 71.158Z" fill="#69040D"/>
<path d="M26.6931 76.2559H32.6258V69.76H35.8325V86.2527H32.6258V78.8811H26.6931V86.2527H23.4863V69.76H26.6931V76.2559Z" fill="#69040D"/>
<path d="M62.7103 84.1406C61.1756 85.8394 59.2324 86.6878 56.8771 86.6878C54.5217 86.6878 52.5767 85.8394 51.0438 84.1406C49.5091 82.4418 48.7427 80.3896 48.7427 77.9837C48.7427 75.6214 49.5127 73.5872 51.0546 71.8812C52.5948 70.1752 54.5362 69.3213 56.8771 69.3213C59.218 69.3213 61.1594 70.1752 62.6995 71.8812C64.2396 73.5872 65.0114 75.6214 65.0114 77.9837C65.0114 80.3896 64.2432 82.4418 62.7103 84.1406ZM60.3116 74.1329C59.3879 73.0397 58.2436 72.4922 56.8771 72.4922C55.5105 72.4922 54.3662 73.0397 53.4425 74.1329C52.5188 75.2262 52.0579 76.4663 52.0579 77.8514C52.0579 79.1785 52.5369 80.4548 53.4968 81.6786C54.4566 82.9042 55.5828 83.5151 56.8771 83.5151C58.1713 83.5151 59.2975 82.9023 60.2573 81.6786C61.2172 80.453 61.6962 79.1785 61.6962 77.8514C61.6962 76.4663 61.2335 75.2262 60.3116 74.1329Z" fill="#69040D"/>
<path d="M79.7962 69.7582L83.1115 81.0005H83.1548L86.4267 69.5388H88.3247L91.7267 81.0005H91.7701L94.9967 69.7582H98.3553L92.795 86.579H90.4396L87.1678 75.7954H87.1244L84.0279 86.579H81.6726L76.4395 69.7582H79.7962Z" fill="#69040D"/>
<path d="M128.124 79.6227V69.7583H131.33V78.9882C131.33 79.4831 131.341 79.9183 131.363 80.2899C131.385 80.6616 131.453 81.0913 131.571 81.5808C131.686 82.0703 131.84 82.4673 132.028 82.7737C132.216 83.0801 132.5 83.343 132.879 83.5605C133.257 83.7799 133.707 83.8887 134.232 83.8887C134.754 83.8887 135.206 83.7799 135.584 83.5605C135.961 83.3412 136.245 83.0801 136.433 82.7737C136.621 82.4673 136.775 82.0703 136.891 81.5808C137.006 81.0931 137.075 80.6616 137.098 80.2899C137.12 79.9183 137.131 79.485 137.131 78.9882V69.7583H140.338V79.6227C140.338 81.7802 139.842 83.4989 138.855 84.7734C137.867 86.0498 136.325 86.6879 134.232 86.6879C132.138 86.6879 130.596 86.0498 129.608 84.7734C128.619 83.4989 128.124 81.782 128.124 79.6227Z" fill="#69040D"/>
<path d="M157.151 80.0832V86.251H153.944V69.7583H158.306C162.1 69.7583 163.998 71.4643 163.998 74.8764C163.998 76.6114 163.548 77.9131 162.646 78.7815C161.744 79.6499 160.442 80.0832 158.741 80.0832H157.151ZM157.151 72.427V77.4145H157.805C158.837 77.4145 159.582 77.2387 160.041 76.8888C160.498 76.5389 160.728 75.8608 160.728 74.8546C160.728 73.8774 160.48 73.2284 159.987 72.9075C159.493 72.5866 158.736 72.427 157.718 72.427H157.151Z" fill="#69040D"/>
<path d="M2.64071 92.667V96.8658H1.65735V92.667H0.639648V91.8076H3.6566V92.667H2.64071Z" fill="#B71632"/>
<path d="M7.00777 93.8001H8.82626V91.8076H9.80961V96.8658H8.82626V94.605H7.00777V96.8658H6.02441V91.8076H7.00777V93.8001Z" fill="#B71632"/>
<path d="M15.148 92.6669H13.5229V93.78H15.0883V94.6394H13.5229V96.0082H15.148V96.8675H12.5396V91.8093H15.148V92.6669Z" fill="#B71632"/>
<path d="M20.5905 95.7997H18.8389L18.4249 96.8657H17.3892L19.3559 91.6733H20.1187L22.0312 96.8657H20.9809L20.5905 95.7997ZM20.3175 94.9947L19.6885 93.1564H19.6758L19.1209 94.9947H20.3175Z" fill="#B71632"/>
<path d="M25.4407 92.667V96.8658H24.4573V92.667H23.4414V91.8076H26.4584V92.667H25.4407Z" fill="#B71632"/>
<path d="M30.8108 94.732L32.2352 96.8658H31.044L29.8202 94.8262H29.8076V96.8658H28.8242V91.8076H30.1546C30.6807 91.8076 31.0928 91.9309 31.3929 92.1793C31.6911 92.4277 31.8412 92.8102 31.8412 93.3305C31.8412 93.6714 31.749 93.9759 31.5664 94.2461C31.3838 94.518 31.1326 94.6794 30.8108 94.732ZM29.8076 92.6126V94.1355H29.9341C30.2324 94.1355 30.4619 94.0793 30.6192 93.9651C30.7783 93.8508 30.856 93.6496 30.856 93.3577C30.856 93.0676 30.7765 92.87 30.6192 92.7667C30.4601 92.6633 30.2342 92.6126 29.9395 92.6126H29.8076Z" fill="#B71632"/>
<path d="M37.1719 92.6669H35.5468V93.78H37.1122V94.6394H35.5468V96.0082H37.1719V96.8675H34.5635V91.8093H37.1719V92.6669Z" fill="#B71632"/>
<path d="M46.3819 92.6669H44.7568V93.78H46.3222V94.6394H44.7568V96.0082H46.3819V96.8675H43.7734V91.8093H46.3819V92.6669Z" fill="#B71632"/>
<path d="M49.043 96.8658V91.8076H50.4475C51.1706 91.8076 51.7562 92.0487 52.2063 92.5292C52.6564 93.0096 52.8824 93.6152 52.8824 94.344C52.8824 95.0637 52.6546 95.6638 52.1973 96.1443C51.74 96.6247 51.1543 96.8658 50.4421 96.8658H49.043ZM50.0263 92.667V96.0083H50.1872C51.3061 96.0083 51.8665 95.4517 51.8665 94.3385C51.8665 93.2254 51.3061 92.6688 50.1872 92.6688H50.0263V92.667Z" fill="#B71632"/>
<path d="M55.3423 94.8335V91.8076H56.3256V94.6377C56.3256 94.79 56.3293 94.9223 56.3365 95.0365C56.3437 95.1508 56.3636 95.2831 56.3998 95.4318C56.4359 95.5822 56.4829 95.7037 56.5408 95.798C56.5986 95.8923 56.6854 95.972 56.8011 96.0391C56.9167 96.1062 57.0559 96.1388 57.215 96.1388C57.3741 96.1388 57.5133 96.1044 57.6289 96.0391C57.7446 95.972 57.8314 95.8923 57.8893 95.798C57.9471 95.7037 57.9941 95.5822 58.0302 95.4318C58.0664 95.2813 58.0863 95.1508 58.0935 95.0365C58.1007 94.9223 58.1044 94.79 58.1044 94.6377V91.8076H59.0877V94.8335C59.0877 95.4952 58.9359 96.0228 58.6322 96.4126C58.3285 96.8042 57.8567 97 57.215 97C56.5733 97 56.0997 96.8042 55.7978 96.4126C55.4941 96.0228 55.3423 95.4952 55.3423 94.8335Z" fill="#B71632"/>
<path d="M65.1615 91.969V93.1493C64.8668 92.7921 64.4963 92.6126 64.0516 92.6126C63.6015 92.6126 63.2418 92.7867 62.9706 93.1366C62.7013 93.4847 62.5657 93.8926 62.5657 94.3567C62.5657 94.8082 62.7031 95.2052 62.9778 95.5479C63.2526 95.8905 63.6069 96.0609 64.0443 96.0609C64.2486 96.0609 64.4511 96.012 64.6499 95.9141C64.8487 95.8162 65.0187 95.6856 65.1615 95.5243V96.6991C64.7385 96.9003 64.3571 97.0019 64.0172 97.0019C63.3213 97.0019 62.7356 96.7426 62.262 96.2241C61.7884 95.7056 61.5498 95.091 61.5498 94.3785C61.5498 93.8998 61.6528 93.4557 61.8571 93.0441C62.0614 92.6326 62.3578 92.3026 62.7428 92.0506C63.1279 91.8004 63.5599 91.6753 64.0371 91.6753C64.4294 91.6735 64.8054 91.7732 65.1615 91.969Z" fill="#B71632"/>
<path d="M70.5988 95.7997H68.8472L68.4332 96.8657H67.3975L69.3642 91.6733H70.127L72.0395 96.8657H70.9892L70.5988 95.7997ZM70.324 94.9947L69.695 93.1564H69.6823L69.1274 94.9947H70.324Z" fill="#B71632"/>
<path d="M75.449 92.667V96.8658H74.4656V92.667H73.4497V91.8076H76.4667V92.667H75.449Z" fill="#B71632"/>
<path d="M79.8159 91.8076V96.8658H78.8325V91.8076H79.8159Z" fill="#B71632"/>
<path d="M86.5805 96.2185C86.1105 96.7388 85.514 96.9999 84.7909 96.9999C84.0679 96.9999 83.4732 96.7388 83.0014 96.2185C82.5296 95.6982 82.2964 95.0672 82.2964 94.3294C82.2964 93.6042 82.5332 92.9805 83.005 92.4584C83.4768 91.9344 84.0733 91.6733 84.7909 91.6733C85.5086 91.6733 86.1033 91.9344 86.5769 92.4584C87.0487 92.9823 87.2855 93.606 87.2855 94.3294C87.2873 95.0672 87.0505 95.6982 86.5805 96.2185ZM85.8448 93.1491C85.561 92.8137 85.2103 92.6469 84.7909 92.6469C84.3716 92.6469 84.0209 92.8137 83.7371 93.1491C83.4533 93.4845 83.3123 93.8652 83.3123 94.2895C83.3123 94.6956 83.4587 95.0872 83.7533 95.4643C84.048 95.8396 84.3933 96.0281 84.7891 96.0281C85.185 96.0281 85.5321 95.8396 85.8267 95.4643C86.1214 95.089 86.2678 94.6974 86.2678 94.2895C86.2696 93.8652 86.1286 93.4845 85.8448 93.1491Z" fill="#B71632"/>
<path d="M89.7744 96.8657V91.6733H90.483L93.1384 95.2087H93.1511V91.8075H94.1344V96.9654H93.4259L90.7704 93.4301H90.7578V96.8639H89.7744V96.8657Z" fill="#B71632"/>
<path d="M104.964 96.8657L104.562 93.7256H104.55L103.406 96.9328H103.064L101.961 93.7256H101.949L101.5 96.8657H100.51L101.359 91.6733H102.055L103.299 95.0074L104.49 91.6733H105.199L105.954 96.8657H104.964Z" fill="#B71632"/>
<path d="M111.177 95.7997H109.425L109.011 96.8657H107.976L109.942 91.6733H110.705L112.618 96.8657H111.567L111.177 95.7997ZM110.902 94.9947L110.273 93.1564H110.26L109.705 94.9947H110.902Z" fill="#B71632"/>
<path d="M114.922 96.8657V91.6733H115.631L118.286 95.2087H118.299V91.8075H119.282V96.9654H118.574L115.918 93.4301H115.906V96.8639H114.922V96.8657Z" fill="#B71632"/>
<path d="M124.787 95.7997H123.035L122.621 96.8657H121.585L123.552 91.6733H124.315L126.227 96.8657H125.177L124.787 95.7997ZM124.514 94.9947L123.885 93.1564H123.872L123.317 94.9947H124.514Z" fill="#B71632"/>
<path d="M130.813 94.1754H132.986V94.3023C132.986 94.6685 132.939 95.0111 132.845 95.3284C132.751 95.6457 132.614 95.9303 132.431 96.1841C132.248 96.4362 132.008 96.6356 131.708 96.7806C131.41 96.9257 131.07 96.9982 130.692 96.9982C130.218 96.9982 129.797 96.8749 129.425 96.6265C129.053 96.3781 128.771 96.0554 128.579 95.6566C128.387 95.2595 128.292 94.8244 128.292 94.3548C128.292 93.6079 128.519 92.9734 128.973 92.453C129.429 91.9327 130.021 91.6716 130.752 91.6716C131.184 91.6716 131.576 91.7768 131.928 91.9871C132.281 92.1974 132.552 92.4947 132.744 92.8791L131.874 93.3486C131.771 93.1111 131.618 92.919 131.413 92.7685C131.209 92.618 130.979 92.5437 130.725 92.5437C130.284 92.5437 129.936 92.7286 129.685 93.1003C129.434 93.4719 129.307 93.8889 129.307 94.3548C129.307 94.6449 129.358 94.9223 129.461 95.187C129.564 95.4517 129.727 95.6729 129.949 95.8542C130.171 96.0355 130.434 96.1261 130.732 96.1261C131.036 96.1261 131.301 96.0119 131.527 95.7835C131.755 95.555 131.872 95.2867 131.881 94.9785H130.811V94.1754H130.813Z" fill="#B71632"/>
<path d="M138.091 92.6669H136.466V93.78H138.031V94.6394H136.466V96.0082H138.091V96.8675H135.482V91.8093H138.091V92.6669Z" fill="#B71632"/>
<path d="M144.918 96.8657L144.517 93.7256H144.504L143.36 96.9328H143.019L141.916 93.7256H141.903L141.455 96.8657H140.464L141.314 91.6733H142.01L143.254 95.0074L144.445 91.6733H145.153L145.909 96.8657H144.918Z" fill="#B71632"/>
<path d="M150.958 92.6669H149.332V93.78H150.898V94.6394H149.332V96.0082H150.958V96.8675H148.349V91.8093H150.958V92.6669Z" fill="#B71632"/>
<path d="M153.62 96.8657V91.6733H154.329L156.984 95.2087H156.997V91.8075H157.98V96.9654H157.272L154.616 93.4301H154.603V96.8639H153.62V96.8657Z" fill="#B71632"/>
<path d="M162.342 92.667V96.8658H161.359V92.667H160.343V91.8076H163.36V92.667H162.342Z" fill="#B71632"/>
</svg>
