<svg width="335" height="95" viewBox="0 0 335 95" fill="none" xmlns="http://www.w3.org/2000/svg">
<path d="M54.7956 79V68.0703H58.3496L58.8779 63.7909H54.7956V61.0652C54.7956 59.8303 55.1272 58.9849 56.8355 58.9849H59V55.1696C57.9468 55.0525 56.8882 54.9959 55.829 55.0002C52.6877 55.0002 50.5308 56.9899 50.5308 60.6424V63.7829H47V68.0623H50.5386V79H54.7956Z" fill="#4092FF"/>
<rect x="0.5" y="39.5" width="106" height="55" rx="7.5" stroke="#DADADA"/>
<g clip-path="url(#clip0_425_710)">
<path d="M275.669 79.5133C275.156 79.1722 274.702 78.7508 274.323 78.2653C273.907 77.7641 273.521 77.2383 273.168 76.6906C272.339 75.4766 271.689 74.1498 271.238 72.7508C270.696 71.1258 270.434 69.5683 270.434 68.0448C270.434 66.3435 270.802 64.8582 271.522 63.6102C272.055 62.6348 272.84 61.8196 273.794 61.2491C274.719 60.6746 275.782 60.3602 276.87 60.3391C277.251 60.3391 277.662 60.3943 278.097 60.5C278.41 60.5885 278.791 60.7283 279.257 60.9021C279.849 61.1305 280.175 61.2702 280.285 61.3043C280.632 61.4311 280.924 61.4863 281.153 61.4863C281.327 61.4863 281.572 61.4311 281.851 61.3466C282.008 61.2913 282.303 61.1938 282.727 61.0126C283.146 60.8599 283.476 60.7291 283.738 60.6316C284.14 60.513 284.53 60.4033 284.877 60.348C285.288 60.2832 285.705 60.266 286.121 60.2968C286.84 60.3439 287.549 60.4963 288.224 60.7494C289.328 61.1938 290.221 61.8877 290.886 62.8741C290.605 63.0472 290.341 63.2469 290.099 63.4705C289.57 63.9389 289.12 64.4889 288.765 65.0995C288.302 65.934 288.061 66.8741 288.067 67.8287C288.084 69.0011 288.385 70.0338 288.977 70.9268C289.413 71.5886 289.979 72.1545 290.64 72.59C290.979 72.8183 291.271 72.9751 291.55 73.0807C291.42 73.487 291.28 73.8802 291.115 74.2702C290.741 75.1448 290.288 75.9833 289.761 76.7751C289.291 77.4568 288.923 77.9646 288.643 78.3026C288.208 78.8186 287.789 79.2126 287.365 79.4873C286.9 79.796 286.35 79.961 285.791 79.961C285.412 79.9755 285.034 79.9297 284.669 79.8253C284.357 79.7196 284.047 79.6051 283.742 79.4743C283.426 79.3288 283.099 79.2058 282.765 79.1062C281.939 78.8941 281.073 78.8927 280.247 79.1021C279.908 79.1996 279.582 79.3134 279.261 79.4531C278.808 79.6433 278.507 79.7708 278.334 79.8253C277.987 79.9268 277.627 79.9902 277.263 80.0113C276.7 80.0113 276.175 79.8505 275.655 79.5246L275.669 79.5133ZM283.095 59.5136C282.359 59.8816 281.656 60.0385 280.958 59.9873C280.848 59.2845 280.958 58.5654 281.25 57.7781C281.498 57.1111 281.865 56.4945 282.333 55.9581C282.827 55.3934 283.426 54.9306 284.097 54.5955C284.812 54.2275 285.494 54.0284 286.146 53.9991C286.23 54.7353 286.146 55.4592 285.875 56.2416C285.625 56.9333 285.259 57.5773 284.792 58.1461C284.316 58.7116 283.732 59.1762 283.074 59.5128L283.095 59.5136Z" fill="black"/>
</g>
<rect x="228.5" y="39.5" width="106" height="55" rx="7.5" stroke="#DADADA"/>
<path d="M161.42 69.4656L160.597 72.537L157.59 72.6006C156.691 70.9338 156.182 69.0266 156.182 67C156.182 65.0403 156.658 63.1922 157.503 61.5649H157.504L160.181 62.0558L161.354 64.7169C161.108 65.4325 160.974 66.2007 160.974 67C160.975 67.8675 161.132 68.6987 161.42 69.4656Z" fill="#FBBB00"/>
<path d="M179.612 64.7921C179.747 65.507 179.818 66.2453 179.818 66.9999C179.818 67.846 179.729 68.6713 179.56 69.4675C178.984 72.1765 177.481 74.5421 175.399 76.2161L175.398 76.2155L172.026 76.0434L171.549 73.0642C172.931 72.2538 174.01 70.9856 174.579 69.4675H168.26V64.7921H174.671H179.612Z" fill="#518EF8"/>
<path d="M175.398 76.2156L175.398 76.2162C173.373 77.8441 170.8 78.8181 168 78.8181C163.499 78.8181 159.586 76.3026 157.59 72.6006L161.42 69.4656C162.418 72.1292 164.987 74.0253 168 74.0253C169.294 74.0253 170.507 73.6753 171.548 73.0643L175.398 76.2156Z" fill="#28B446"/>
<path d="M175.543 57.9025L171.715 61.0369C170.637 60.3636 169.364 59.9746 168 59.9746C164.919 59.9746 162.302 61.9577 161.354 64.7168L157.504 61.5649H157.503C159.47 57.7727 163.432 55.1818 168 55.1818C170.867 55.1818 173.496 56.2032 175.543 57.9025Z" fill="#F14336"/>
<rect x="115.5" y="39.5" width="105" height="55" rx="7.5" stroke="#DADADA"/>
<path d="M126.774 13.196C125.967 13.196 125.253 13.0187 124.632 12.664C124.016 12.3093 123.533 11.7797 123.183 11.075C122.833 10.3703 122.658 9.49533 122.658 8.45C122.658 7.386 122.833 6.50633 123.183 5.811C123.533 5.111 124.016 4.59067 124.632 4.25C125.253 3.90467 125.967 3.732 126.774 3.732C127.586 3.732 128.302 3.90933 128.923 4.264C129.544 4.614 130.029 5.139 130.379 5.839C130.729 6.539 130.904 7.40933 130.904 8.45C130.904 9.50933 130.729 10.3913 130.379 11.096C130.029 11.8007 129.544 12.328 128.923 12.678C128.302 13.0233 127.586 13.196 126.774 13.196ZM126.774 11.698C127.516 11.698 128.104 11.418 128.538 10.858C128.977 10.298 129.196 9.49067 129.196 8.436C129.196 7.41867 128.977 6.62767 128.538 6.063C128.104 5.49833 127.516 5.216 126.774 5.216C126.046 5.216 125.463 5.50067 125.024 6.07C124.585 6.63467 124.366 7.428 124.366 8.45C124.366 9.5 124.585 10.305 125.024 10.865C125.463 11.4203 126.046 11.698 126.774 11.698ZM132.859 13V6.182H134.511V13H132.859ZM134.105 10.018C134.105 9.12667 134.205 8.38933 134.406 7.806C134.606 7.22267 134.875 6.791 135.211 6.511C135.551 6.22633 135.929 6.084 136.345 6.084C136.457 6.084 136.562 6.091 136.66 6.105C136.762 6.119 136.863 6.14 136.961 6.168L136.933 7.82C136.811 7.792 136.681 7.76867 136.541 7.75C136.401 7.73133 136.275 7.722 136.163 7.722C135.799 7.722 135.493 7.81067 135.246 7.988C135.003 8.16067 134.819 8.41733 134.693 8.758C134.571 9.09867 134.511 9.51867 134.511 10.018H134.105ZM143.548 3.914V11.558H147.286V13H141.896V3.914H143.548ZM151.488 13.196C150.867 13.196 150.305 13.063 149.801 12.797C149.301 12.531 148.905 12.1343 148.611 11.607C148.317 11.075 148.17 10.41 148.17 9.612C148.17 8.8 148.317 8.128 148.611 7.596C148.905 7.064 149.301 6.66733 149.801 6.406C150.305 6.14467 150.867 6.014 151.488 6.014C152.099 6.014 152.652 6.14467 153.147 6.406C153.646 6.66733 154.043 7.064 154.337 7.596C154.631 8.128 154.778 8.8 154.778 9.612C154.778 10.41 154.631 11.075 154.337 11.607C154.043 12.1343 153.646 12.531 153.147 12.797C152.652 13.063 152.099 13.196 151.488 13.196ZM151.432 11.754C151.758 11.754 152.048 11.6747 152.3 11.516C152.556 11.3527 152.757 11.1123 152.902 10.795C153.051 10.4777 153.126 10.0833 153.126 9.612C153.126 8.89333 152.983 8.352 152.699 7.988C152.419 7.624 152.034 7.442 151.544 7.442C151.212 7.442 150.918 7.52367 150.662 7.687C150.405 7.84567 150.202 8.086 150.053 8.408C149.908 8.73 149.836 9.13133 149.836 9.612C149.836 10.3213 149.978 10.8557 150.263 11.215C150.552 11.5743 150.942 11.754 151.432 11.754ZM159.361 16.514C158.582 16.514 157.915 16.4067 157.359 16.192C156.809 15.9773 156.386 15.695 156.092 15.345C155.798 14.9997 155.651 14.624 155.651 14.218C155.651 13.7373 155.826 13.364 156.176 13.098C156.526 12.8367 156.967 12.706 157.499 12.706L158.703 13.154C158.246 13.154 157.894 13.2403 157.646 13.413C157.399 13.5857 157.275 13.826 157.275 14.134C157.275 14.456 157.46 14.7127 157.828 14.904C158.202 15.1 158.713 15.198 159.361 15.198C159.833 15.198 160.241 15.128 160.586 14.988C160.932 14.848 161.198 14.666 161.384 14.442C161.576 14.218 161.671 13.98 161.671 13.728C161.671 13.56 161.615 13.4223 161.503 13.315C161.391 13.2077 161.219 13.154 160.985 13.154H158.703C158.246 13.154 157.828 13.0817 157.45 12.937C157.077 12.7877 156.778 12.5893 156.554 12.342C156.335 12.09 156.225 11.81 156.225 11.502C156.225 11.2173 156.305 10.9723 156.463 10.767C156.622 10.557 156.837 10.396 157.107 10.284C157.383 10.172 157.691 10.116 158.031 10.116L158.451 10.662C158.316 10.662 158.185 10.69 158.059 10.746C157.938 10.7973 157.838 10.8743 157.758 10.977C157.679 11.0797 157.639 11.208 157.639 11.362C157.639 11.5487 157.719 11.7003 157.877 11.817C158.036 11.9337 158.311 11.992 158.703 11.992H160.985C161.709 11.992 162.276 12.125 162.686 12.391C163.102 12.657 163.309 13.0653 163.309 13.616C163.309 14.106 163.148 14.5703 162.826 15.009C162.504 15.4523 162.047 15.814 161.454 16.094C160.866 16.374 160.169 16.514 159.361 16.514ZM159.445 10.9C158.909 10.9 158.416 10.7997 157.968 10.599C157.525 10.3937 157.17 10.109 156.904 9.745C156.638 9.381 156.505 8.954 156.505 8.464C156.505 7.96467 156.638 7.53067 156.904 7.162C157.17 6.79333 157.525 6.511 157.968 6.315C158.416 6.11433 158.909 6.014 159.445 6.014C159.968 6.014 160.451 6.11433 160.894 6.315C161.338 6.511 161.695 6.79333 161.965 7.162C162.236 7.53067 162.371 7.96467 162.371 8.464C162.371 8.954 162.236 9.381 161.965 9.745C161.695 10.109 161.338 10.3937 160.894 10.599C160.451 10.7997 159.968 10.9 159.445 10.9ZM159.459 9.752C159.889 9.752 160.211 9.62833 160.425 9.381C160.64 9.13367 160.747 8.828 160.747 8.464C160.747 8.072 160.638 7.757 160.418 7.519C160.204 7.281 159.879 7.162 159.445 7.162C159.025 7.162 158.703 7.281 158.479 7.519C158.255 7.757 158.143 8.072 158.143 8.464C158.143 8.828 158.255 9.13367 158.479 9.381C158.708 9.62833 159.035 9.752 159.459 9.752ZM161.853 7.106L161.097 6.672C161.097 6.266 161.191 5.91133 161.377 5.608C161.569 5.3 161.821 5.062 162.133 4.894C162.451 4.726 162.801 4.642 163.183 4.642L163.099 6.224C162.693 6.224 162.383 6.29633 162.168 6.441C161.958 6.581 161.853 6.80267 161.853 7.106ZM165.858 4.964C165.536 4.964 165.284 4.88 165.102 4.712C164.925 4.53933 164.836 4.30133 164.836 3.998C164.836 3.704 164.925 3.47067 165.102 3.298C165.284 3.12067 165.536 3.032 165.858 3.032C166.175 3.032 166.425 3.12067 166.607 3.298C166.789 3.47067 166.88 3.704 166.88 3.998C166.88 4.30133 166.789 4.53933 166.607 4.712C166.425 4.88 166.175 4.964 165.858 4.964ZM165.032 13V6.182H166.684V13H165.032ZM174.148 13V9.024C174.148 8.52 174.026 8.13967 173.784 7.883C173.541 7.62633 173.224 7.498 172.832 7.498C172.5 7.498 172.206 7.589 171.95 7.771C171.698 7.953 171.499 8.22833 171.355 8.597C171.21 8.961 171.138 9.416 171.138 9.962H170.592C170.592 9.08 170.701 8.34733 170.921 7.764C171.14 7.176 171.45 6.73733 171.852 6.448C172.253 6.15867 172.724 6.014 173.266 6.014C173.826 6.014 174.292 6.14 174.666 6.392C175.044 6.63933 175.326 6.98933 175.513 7.442C175.704 7.89467 175.8 8.422 175.8 9.024V13H174.148ZM169.486 13V6.21H170.928L171.138 7.554V13H169.486ZM180.615 6.21H182.337L183.807 11.362H183.639L185.025 6.574H186.523L187.909 11.376H187.741L189.211 6.21H190.863L188.623 13H186.999L185.613 8.492H185.865L184.507 13H182.869L180.615 6.21ZM193.325 4.964C193.003 4.964 192.751 4.88 192.569 4.712C192.391 4.53933 192.303 4.30133 192.303 3.998C192.303 3.704 192.391 3.47067 192.569 3.298C192.751 3.12067 193.003 3.032 193.325 3.032C193.642 3.032 193.892 3.12067 194.074 3.298C194.256 3.47067 194.347 3.704 194.347 3.998C194.347 4.30133 194.256 4.53933 194.074 4.712C193.892 4.88 193.642 4.964 193.325 4.964ZM192.499 13V6.182H194.151V13H192.499ZM199.248 13.196C198.847 13.196 198.478 13.1213 198.142 12.972C197.811 12.8227 197.545 12.594 197.344 12.286C197.148 11.978 197.05 11.586 197.05 11.11V4.404H198.702V11.054C198.702 11.614 198.968 11.894 199.5 11.894C199.664 11.894 199.827 11.8753 199.99 11.838C200.154 11.8007 200.34 11.7447 200.55 11.67L200.788 12.832C200.527 12.9347 200.273 13.021 200.025 13.091C199.778 13.161 199.519 13.196 199.248 13.196ZM196.098 7.302V6.21H200.55V7.302H196.098ZM207.138 13V9.024C207.138 8.52 207.016 8.13967 206.774 7.883C206.531 7.62633 206.214 7.498 205.822 7.498C205.49 7.498 205.196 7.589 204.94 7.771C204.688 7.953 204.489 8.22833 204.345 8.597C204.2 8.961 204.128 9.416 204.128 9.962H203.582C203.582 9.08 203.691 8.34733 203.911 7.764C204.13 7.176 204.44 6.73733 204.842 6.448C205.243 6.15867 205.714 6.014 206.256 6.014C206.816 6.014 207.282 6.14 207.656 6.392C208.034 6.63933 208.316 6.98933 208.503 7.442C208.694 7.89467 208.79 8.422 208.79 9.024V13H207.138ZM202.476 13V3.396H204.128V13H202.476Z" fill="#6A707C"/>
<line x1="4.37114e-08" y1="8.5" x2="113.353" y2="8.50001" stroke="#E8ECF4"/>
<line x1="222.658" y1="8.5" x2="335" y2="8.49999" stroke="#E8ECF4"/>
<defs>
<clipPath id="clip0_425_710">
<rect width="26" height="26" fill="white" transform="translate(268 54)"/>
</clipPath>
</defs>
</svg>
